<?xml version="1.0" encoding="utf-8"?>
<svg viewBox="0 0 500 500" xmlns="http://www.w3.org/2000/svg">
  <g id="freepik--Character--inject-708">
    <path d="M314.05,176.41c-5.33-37-14.77-77.56-67.59-73.78,0,0-36.08,7.4-51.54,31.43-9.1,14.13-13.45,73.91-15,122h0v0c-.07,2,.75,15.62.69,17.53l139.83,11.64,16.75-5S317.37,199.4,314.05,176.41Z" style="fill:#263238"/>
    <path d="M239.43,116.4l3.31-3.15,35.71,14.39a10,10,0,0,1,9.41,9.65l-.31,116.36c0,7.89-1.54,14.73-6.3,21l-5,6.62c-11.43,15.1-35,13.86-44-2.78a12.33,12.33,0,0,1-1.27-3,24.55,24.55,0,0,1-.53-2.6c-1.06-9.36-1.12-17.48-1.12-17.48-.64-10.28-.85-14.5-.85-14.4s-21.87-2.52-27.79-30.59c-2.94-14-2.38-33.18-1.56-52.09C200.25,132.18,218.4,116.37,239.43,116.4Z" style="fill:#ffbf9d"/>
    <path d="M246.75,177.5a3.64,3.64,0,0,0,3.68,3.49,3.48,3.48,0,0,0,3.58-3.46,3.63,3.63,0,0,0-3.68-3.49A3.48,3.48,0,0,0,246.75,177.5Z" style="fill:#263238"/>
    <path d="M209.83,177.5a3.64,3.64,0,0,0,3.69,3.49,3.49,3.49,0,0,0,3.58-3.46,3.63,3.63,0,0,0-3.68-3.49A3.48,3.48,0,0,0,209.83,177.5Z" style="fill:#263238"/>
    <path d="M202.84,165.82c.47.45,3.12-1.72,7-1.91s6.86,1.63,7.26,1.13c.2-.22-.3-1-1.59-1.9a10,10,0,0,0-5.85-1.49,9.64,9.64,0,0,0-5.56,2.11C203,164.75,202.61,165.62,202.84,165.82Z" style="fill:#263238"/>
    <path d="M242.48,166.23c.52.4,2.93-2,6.79-2.62s7,.91,7.35.37c.17-.24-.41-1-1.79-1.73a10,10,0,0,0-6-.87,9.5,9.5,0,0,0-5.32,2.67C242.5,165.14,242.23,166.05,242.48,166.23Z" style="fill:#263238"/>
    <path d="M228.83,194.66c0-.22-2.44-.52-6.4-.83-1-.05-2-.2-2.16-.87s.09-1.81.52-3c.82-2.46,1.67-5,2.57-7.74,3.55-11,6.07-20.06,5.63-20.2s-3.69,8.68-7.24,19.7c-.86,2.71-1.67,5.3-2.45,7.78-.32,1.15-.9,2.47-.32,3.94a2.52,2.52,0,0,0,1.72,1.37,6.21,6.21,0,0,0,1.7.15C226.37,195,228.83,194.88,228.83,194.66Z" style="fill:#263238"/>
    <path d="M228.45,241a72.15,72.15,0,0,0,37.4-12s-8.55,20.07-37,18.84Z" style="fill:#ff9a6c"/>
    <path d="M231,204a7,7,0,0,1,6.17-2.93,6.44,6.44,0,0,1,4.56,2.16,4.08,4.08,0,0,1,.54,4.64c-1,1.53-3.16,2-5,1.55a14.76,14.76,0,0,1-5.14-2.73,4.43,4.43,0,0,1-1.18-1.1,1.3,1.3,0,0,1-.06-1.45" style="fill:#ff9a6c"/>
    <path d="M240.46,196.79c-.63,0-.43,4.23-3.91,7.42s-8,2.95-8,3.55c0,.27,1.05.77,3,.73a10.59,10.59,0,0,0,6.71-2.72,9.18,9.18,0,0,0,3-6.22C241.28,197.77,240.75,196.75,240.46,196.79Z" style="fill:#263238"/>
    <path d="M238.74,151c.54,1,4.32-.1,8.94-.25s8.48.53,8.94-.5c.2-.5-.59-1.39-2.23-2.18a15.57,15.57,0,0,0-13.62.58C239.21,149.57,238.5,150.53,238.74,151Z" style="fill:#263238"/>
    <path d="M203.4,149c.73.85,3.38-.2,6.61-.41s6,.3,6.59-.66c.25-.47-.22-1.33-1.46-2.11a9.13,9.13,0,0,0-5.45-1.19,9.26,9.26,0,0,0-5.19,2.05C203.41,147.69,203.08,148.62,203.4,149Z" style="fill:#263238"/>
    <path d="M287.15,187s-20,6.23-31.33-43.15c-3.87-16.88-19.52-30.55-19.52-30.55l6.35-1.91S282.1,122.45,282.76,123s9.95,20.4,9.95,20.4Z" style="fill:#263238"/>
    <path d="M282.22,185.11c-.1-2.11,2.09-7.2,4.15-7.63,5.52-1.14,15.56-1.2,16.36,12.91,1.09,19.3-18.5,16.41-18.57,15.86S282.57,192.39,282.22,185.11Z" style="fill:#ffbf9d"/>
    <path d="M289.64,198.61c.08-.07.35.22.93.44a3.31,3.31,0,0,0,2.52-.09c2-.86,3.53-4.19,3.42-7.67a11.12,11.12,0,0,0-1.21-4.76,3.89,3.89,0,0,0-2.67-2.44,1.73,1.73,0,0,0-1.94,1c-.22.56-.08.94-.18,1s-.43-.29-.32-1.1a2.14,2.14,0,0,1,.69-1.25,2.54,2.54,0,0,1,1.83-.6c1.49,0,2.91,1.31,3.68,2.79a11.53,11.53,0,0,1,1.47,5.31c.1,3.9-1.69,7.65-4.43,8.61a3.61,3.61,0,0,1-3.1-.33C289.7,199.08,289.58,198.65,289.64,198.61Z" style="fill:#ff9a6c"/>
    <path d="M253.17,149.07c-1.36-5-2.83-9.78-4.44-14a80.1,80.1,0,0,0-5-10.89,56.25,56.25,0,0,0-4.42-6.78c-.57-.77-1.06-1.32-1.38-1.71a4.14,4.14,0,0,0-.51-.57,3.31,3.31,0,0,0,.43.63c.29.41.76,1,1.3,1.77a63.35,63.35,0,0,1,4.26,6.83,83.26,83.26,0,0,1,4.91,10.89c1.58,4.22,3,9,4.38,14s2.46,9.88,4.21,14.07a33.23,33.23,0,0,0,3,5.7,24.32,24.32,0,0,0,3.7,4.23,17.18,17.18,0,0,0,7.06,3.91,10.75,10.75,0,0,0,2.94.39c0-.07-1.06-.07-2.89-.59a17.29,17.29,0,0,1-6.87-4,24,24,0,0,1-3.58-4.2,31.76,31.76,0,0,1-2.92-5.64" style="fill:#263238"/>
    <path d="M131.69,370.19s21.07-66.82,26-76.69c7.6-15.08,15.44-20.75,23.43-24.38,6.11-2.78,4.56,115.77,4.56,115.77S139.6,382.36,131.69,370.19Z" style="fill:#CFD8DC"/>
    <path d="M319.66,259.6l-31.8-6s-3.51,21.65-31.16,19.32-27.53-17.48-27.53-17.48L180.5,269.36l.91,21.9,3.74,93.59s5.89,42,5.08,47,9.89,25.58,9.89,25.58l137.06-4.05L341.3,403,344,386l43.18-17.68c1.41-2.32-11.16-46-25.46-76.35A58.41,58.41,0,0,0,319.66,259.6Z" style="fill:#CFD8DC"/>
    <path d="M380.3,371s8.52,54.51,7.83,63.42-8.95,24-26.41,27.14-58.47-9.16-58.47-9.16L300,426.27l7.52-.69s22,.05,26-.73,12.23-4.38,12.23-4.38l-1.26-34.75Z" style="fill:#ffbf9d"/>
    <path d="M345.73,421a3.79,3.79,0,0,1,1-1,10.79,10.79,0,0,1,3.37-1.68,21,21,0,0,1,12.3.17,14.25,14.25,0,0,1,5.8,3.66,15.3,15.3,0,0,1,3.09,4.66,13.3,13.3,0,0,1,1,3.64,4.08,4.08,0,0,1,0,1.38,24.19,24.19,0,0,0-1.45-4.81,15.83,15.83,0,0,0-3.1-4.42,14,14,0,0,0-5.55-3.44,22,22,0,0,0-11.93-.36A14.52,14.52,0,0,0,345.73,421Z" style="fill:#ff9a6c"/>
    <path d="M143,377.27s-5.42,54-4.65,62.89,8.6,26.92,26.09,29.93,58.38-9.76,58.38-9.76l1.41-35.1s-8.46-2.23-13.94,3.69c-5.92,6.39-15.65,4.59-18,4.15A104.27,104.27,0,0,1,181.57,430l3.58-45.14Z" style="fill:#ffbf9d"/>
    <path d="M181.57,430a16.14,16.14,0,0,0-4.72-2.23,25.57,25.57,0,0,0-12.51-.24,13.3,13.3,0,0,0-5.91,3.36,15.83,15.83,0,0,0-3.29,4.57,23.51,23.51,0,0,0-1.5,5,4.75,4.75,0,0,1,0-1.43,12.73,12.73,0,0,1,1-3.8,15.41,15.41,0,0,1,3.28-4.82,13.51,13.51,0,0,1,6.19-3.59,24.44,24.44,0,0,1,12.83.45,12.13,12.13,0,0,1,3.53,1.73,5.46,5.46,0,0,1,.81.69C181.51,429.87,181.59,430,181.57,430Z" style="fill:#ff9a6c"/>
    <path d="M220.39,427.65l3.85-2.42,15.12,6.84s11.87-.76,14.16,2.14,8.44,7.51,5.13,18.81-15,16.08-15,16.08l-18.41-7.81-7.32-11.37,1.69-12.66Z" style="fill:#ffbf9d"/>
    <path d="M312,426.87l-2-.67a16.93,16.93,0,0,0-15,2.06l-4.5,3.07s-11.86-.76-14.15,2.13-8.45,7.52-5.14,18.82,15,16.08,15,16.08l18.41-7.81L312,449.17l7.09-21Z" style="fill:#ffbf9d"/>
    <path d="M206.42,433.43a52.07,52.07,0,0,1,5-4.51,60.27,60.27,0,0,0,16.48,13h0c1-2.05,4.25-6.69,8-6a3.75,3.75,0,0,1,3.42,4c.8-2,3-5.45,6.58-4.72s4.25,5.24,4.25,5.24c1-1.69,3.58-2.54,3.58-2.54,5.2.1,4.94,5.77,4.94,5.77l.09,0a3.79,3.79,0,0,1,5.25,3.45c.12,3.65.23,9.86-.26,12-.72,3.14-6.52,2.71-6.52,2.71s-1.63,7-2.06,9.23-2.95,1.79-6,2-6.65-1.87-6.65-1.87-4.37,3.45-9.27,2.24a11.68,11.68,0,0,1-7.09-5.84s-5.78-1-9.32-3.72-5.84-9.55-5.84-9.55c-4-.35-6.29-4.06-6.29-4.06Z" style="fill:#ffbf9d"/>
    <path d="M220.39,466.14a4.71,4.71,0,0,1-1-.35,10.67,10.67,0,0,1-2.6-1.69,20.22,20.22,0,0,1-5.61-9.16l.34.24a6.57,6.57,0,0,1-4.17-1.28,10.23,10.23,0,0,1-1.71-1.52,6.39,6.39,0,0,1-1.36-2,5,5,0,0,1-.29-2.56c.14-.78.28-1.55.41-2.31.28-1.51.54-3,.79-4.36.51-2.74,1-5.23,1.38-7.38a8.53,8.53,0,0,1,1.52-2.56c.53-.67,1-1.23,1.41-1.67a8,8,0,0,1,1.32-1.32,11.55,11.55,0,0,1-1.11,1.5c-.36.47-.81,1-1.3,1.73a8.6,8.6,0,0,0-1.34,2.4c-.36,2.16-.78,4.65-1.23,7.4l-.75,4.37c-.13.76-.26,1.53-.4,2.31a4.18,4.18,0,0,0,.25,2.18c1.31,2.52,4,4.56,6.54,4.39h.26l.08.25a20.71,20.71,0,0,0,5.24,9A17.18,17.18,0,0,0,220.39,466.14Z" style="fill:#ff9a6c"/>
    <path d="M210.08,439a3.92,3.92,0,0,1,1.29.14,19.35,19.35,0,0,1,3.41.93,13.18,13.18,0,0,1,4.52,2.73,9.41,9.41,0,0,1,3,5.75,6.73,6.73,0,0,1-2.44,5.95,5.29,5.29,0,0,1-2.66,1.17,6,6,0,0,1-2.5-.27,16.88,16.88,0,0,0-3.35-.91c-.8-.07-1.24.09-1.26,0a2.19,2.19,0,0,1,1.27-.3,14,14,0,0,1,3.47.7,5.73,5.73,0,0,0,2.28.18,4.69,4.69,0,0,0,2.33-1.1,6.17,6.17,0,0,0,2.16-5.37,9,9,0,0,0-2.73-5.35,13.49,13.49,0,0,0-4.26-2.74C211.88,439.38,210.05,439.08,210.08,439Z" style="fill:#ff9a6c"/>
    <path d="M222.09,438.88c.2.08-.2,1.23-.93,2.43s-1.34,2.18-1.52,2.1.17-1.21.9-2.45S221.92,438.82,222.09,438.88Z" style="fill:#ff9a6c"/>
    <path d="M239.34,440a4,4,0,0,1-.07,1.22,28.77,28.77,0,0,1-.62,3.27A51.77,51.77,0,0,1,235,454.78a54.46,54.46,0,0,1-5.66,9.4,30.19,30.19,0,0,1-2.12,2.56c-.54.57-.85.87-.89.84s1-1.41,2.61-3.7a68.7,68.7,0,0,0,5.42-9.4,66.87,66.87,0,0,0,3.83-10.16C238.92,441.64,239.22,439.94,239.34,440Z" style="fill:#ff9a6c"/>
    <path d="M250.17,440.48a4.73,4.73,0,0,1,0,1.26c0,.8-.13,2-.29,3.4a89,89,0,0,1-2,11.11,80.39,80.39,0,0,1-3.4,10.76c-.54,1.33-1,2.41-1.37,3.13a4.41,4.41,0,0,1-.61,1.1,43.41,43.41,0,0,1,1.51-4.41c.95-2.71,2.15-6.49,3.18-10.75s1.72-8.16,2.15-11A37.88,37.88,0,0,1,250.17,440.48Z" style="fill:#ff9a6c"/>
    <path d="M258.69,443.71a10.2,10.2,0,0,1,.25,2.86,61.62,61.62,0,0,1-.33,6.9,68.21,68.21,0,0,1-1,6.83,10.84,10.84,0,0,1-.74,2.77c-.21,0,.52-4.34,1-9.67S258.49,443.72,258.69,443.71Z" style="fill:#ff9a6c"/>
    <path d="M219.92,455.55a9.87,9.87,0,0,1,1.12-2c.91-1.51,1.85-3.07,2.87-4.78,1.12-1.87,2.11-3.58,2.8-4.82a14.12,14.12,0,0,1,1.16-2,5.5,5.5,0,0,1-.71,2.24,54.11,54.11,0,0,1-2.63,5C222.3,452.87,220.11,455.7,219.92,455.55Z" style="fill:#ff9a6c"/>
    <path d="M238.76,443.42c-.1,0,.24-1.23.37-3.19a5.26,5.26,0,0,0-.13-1.56,3.54,3.54,0,0,0-.89-1.5,3.82,3.82,0,0,0-3.71-1,8.25,8.25,0,0,0-3.55,2.06,15.59,15.59,0,0,0-2.09,2.74c-1,1.69-1.6,2.8-1.68,2.76a2.63,2.63,0,0,1,.3-.82,22.76,22.76,0,0,1,1.06-2.13,13.94,13.94,0,0,1,2.07-2.89,8.4,8.4,0,0,1,3.77-2.23,4.48,4.48,0,0,1,2.33.05,4.19,4.19,0,0,1,1.85,1.15,3.82,3.82,0,0,1,.95,1.72,5.49,5.49,0,0,1,.09,1.69,13.64,13.64,0,0,1-.44,2.34A3.32,3.32,0,0,1,238.76,443.42Z" style="fill:#ff9a6c"/>
    <path d="M239.66,440.27s-.06-.24,0-.68a5.17,5.17,0,0,1,.62-1.76,5.49,5.49,0,0,1,1.95-2,5.58,5.58,0,0,1,6.47.64,5.56,5.56,0,0,1,1.51,2.34,4.94,4.94,0,0,1,.26,1.85,1.38,1.38,0,0,1-.14.67,9.56,9.56,0,0,0-.46-2.4,5.6,5.6,0,0,0-1.49-2.1,5.26,5.26,0,0,0-5.91-.59,5.56,5.56,0,0,0-1.88,1.77A9.88,9.88,0,0,0,239.66,440.27Z" style="fill:#ff9a6c"/>
    <path d="M250.26,440.9a2.15,2.15,0,0,1,.76-1.77,3.61,3.61,0,0,1,1.88-1,4.17,4.17,0,0,1,2.61.37,5.81,5.81,0,0,1,2.93,3.58,4.27,4.27,0,0,1,.26,1.91c-.09,0-.2-.71-.61-1.78a5.82,5.82,0,0,0-2.8-3.24,3.9,3.9,0,0,0-2.3-.37,3.52,3.52,0,0,0-1.72.83A4.85,4.85,0,0,0,250.26,440.9Z" style="fill:#ff9a6c"/>
    <path d="M323.45,432.69a53.91,53.91,0,0,0-5-4.52,60.56,60.56,0,0,1-16.49,13h0c-1-2.06-4.25-6.7-8.05-6a3.76,3.76,0,0,0-3.42,4c-.79-2-3-5.44-6.57-4.71s-4.25,5.24-4.25,5.24c-1-1.7-3.59-2.54-3.59-2.54-5.2.09-4.94,5.77-4.94,5.77l-.09-.05a3.8,3.8,0,0,0-5.24,3.46c-.12,3.64-.24,9.85.25,12,.72,3.14,6.52,2.7,6.52,2.7s1.63,7,2.06,9.23,3,1.8,6,2,6.66-1.88,6.66-1.88,4.37,3.45,9.26,2.25a11.65,11.65,0,0,0,7.09-5.85s5.78-1,9.32-3.71,5.84-9.56,5.84-9.56c4-.34,6.29-4.06,6.29-4.06Z" style="fill:#ffbf9d"/>
    <path d="M309.48,465.39a3.65,3.65,0,0,0,1.06-.35,10.55,10.55,0,0,0,2.6-1.69,20.1,20.1,0,0,0,5.6-9.16l-.33.25a6.61,6.61,0,0,0,4.16-1.28,10.29,10.29,0,0,0,1.72-1.52,6.42,6.42,0,0,0,1.35-2,4.76,4.76,0,0,0,.29-2.55c-.14-.79-.28-1.56-.41-2.32-.27-1.5-.54-3-.79-4.35-.51-2.74-1-5.24-1.38-7.38a8.33,8.33,0,0,0-1.52-2.56c-.53-.67-1-1.23-1.41-1.68a8.29,8.29,0,0,0-1.31-1.31,11.14,11.14,0,0,0,1.1,1.49c.37.47.81,1.05,1.3,1.74a8.59,8.59,0,0,1,1.35,2.4c.35,2.15.77,4.65,1.23,7.39.23,1.4.48,2.87.74,4.38.13.76.27,1.52.4,2.3a4.12,4.12,0,0,1-.25,2.19c-1.31,2.52-4,4.55-6.54,4.39l-.26,0-.07.26a20.86,20.86,0,0,1-5.24,9A16.19,16.19,0,0,1,309.48,465.39Z" style="fill:#ff9a6c"/>
    <path d="M319.79,438.2a3.92,3.92,0,0,0-1.29.14,20.52,20.52,0,0,0-3.41.93,13.53,13.53,0,0,0-4.52,2.73,9.52,9.52,0,0,0-3,5.75A6.74,6.74,0,0,0,310,453.7a5.21,5.21,0,0,0,2.67,1.18,6.05,6.05,0,0,0,2.5-.28,16.82,16.82,0,0,1,3.34-.91c.8-.07,1.25.1,1.26,0a2,2,0,0,0-1.27-.3,13.39,13.39,0,0,0-3.46.7,5.62,5.62,0,0,1-2.29.17,4.67,4.67,0,0,1-2.33-1.09,6.15,6.15,0,0,1-2.15-5.38,9,9,0,0,1,2.73-5.35,13.48,13.48,0,0,1,4.25-2.73C318,438.64,319.83,438.33,319.79,438.2Z" style="fill:#ff9a6c"/>
    <path d="M307.78,438.13c-.2.08.2,1.23.94,2.44s1.33,2.18,1.51,2.1-.17-1.22-.9-2.46S308,438.07,307.78,438.13Z" style="fill:#ff9a6c"/>
    <path d="M290.53,439.21a3.9,3.9,0,0,0,.08,1.22,30.24,30.24,0,0,0,.61,3.27A53.36,53.36,0,0,0,294.89,454a54.71,54.71,0,0,0,5.66,9.39,32.25,32.25,0,0,0,2.12,2.56,4.48,4.48,0,0,0,.89.84c.09-.07-1-1.4-2.6-3.69a67.86,67.86,0,0,1-5.42-9.41,65.93,65.93,0,0,1-3.84-10.15C291,440.9,290.65,439.19,290.53,439.21Z" style="fill:#ff9a6c"/>
    <path d="M279.71,439.74a4.19,4.19,0,0,0,0,1.25c0,.81.13,2,.28,3.41a89,89,0,0,0,2,11.11,80.51,80.51,0,0,0,3.41,10.75c.53,1.34,1,2.41,1.36,3.13a3.88,3.88,0,0,0,.62,1.1,44.43,44.43,0,0,0-1.51-4.41c-1-2.7-2.15-6.49-3.19-10.74s-1.71-8.17-2.15-11A41.74,41.74,0,0,0,279.71,439.74Z" style="fill:#ff9a6c"/>
    <path d="M271.18,443a10.29,10.29,0,0,0-.24,2.85,61.19,61.19,0,0,0,.32,6.9c.28,2.69.67,5.1,1,6.84a9.94,9.94,0,0,0,.75,2.76c.2,0-.53-4.33-1.06-9.67S271.38,443,271.18,443Z" style="fill:#ff9a6c"/>
    <path d="M310,454.81a9.59,9.59,0,0,0-1.12-2L306,448c-1.11-1.87-2.1-3.57-2.8-4.81a13.42,13.42,0,0,0-1.16-2,5.44,5.44,0,0,0,.71,2.23,52.12,52.12,0,0,0,2.64,5C307.57,452.13,309.77,455,310,454.81Z" style="fill:#ff9a6c"/>
    <path d="M291.11,442.67a2.78,2.78,0,0,1-.29-.82,13.43,13.43,0,0,1-.45-2.35,5.77,5.77,0,0,1,.09-1.68,3.78,3.78,0,0,1,1-1.73,4.25,4.25,0,0,1,1.84-1.15,4.48,4.48,0,0,1,2.33,0,8.42,8.42,0,0,1,3.78,2.22,14.56,14.56,0,0,1,2.06,2.9c.49.88.84,1.61,1.07,2.12a2.83,2.83,0,0,1,.29.83c-.07,0-.63-1.07-1.68-2.76a15.26,15.26,0,0,0-2.08-2.74,8.15,8.15,0,0,0-3.56-2.07,3.83,3.83,0,0,0-3.71,1,3.49,3.49,0,0,0-.88,1.49,5.66,5.66,0,0,0-.14,1.56C290.87,441.44,291.21,442.65,291.11,442.67Z" style="fill:#ff9a6c"/>
    <path d="M290.21,439.53a9.68,9.68,0,0,0-.93-2.25,5.52,5.52,0,0,0-1.87-1.77,5.13,5.13,0,0,0-3.05-.62,5,5,0,0,0-2.86,1.21,5.45,5.45,0,0,0-1.49,2.1,9.25,9.25,0,0,0-.47,2.39s-.11-.23-.14-.67a5.4,5.4,0,0,1,.26-1.85,5.51,5.51,0,0,1,8-3,5.53,5.53,0,0,1,1.94,2,5.14,5.14,0,0,1,.62,1.77A1.35,1.35,0,0,1,290.21,439.53Z" style="fill:#ff9a6c"/>
    <path d="M279.62,440.15a4.92,4.92,0,0,0-1-1.5,3.47,3.47,0,0,0-1.72-.83,3.84,3.84,0,0,0-2.29.36,5.86,5.86,0,0,0-2.8,3.24c-.42,1.07-.53,1.8-.61,1.78a4.06,4.06,0,0,1,.26-1.9,5.77,5.77,0,0,1,2.92-3.59,4.17,4.17,0,0,1,2.61-.36,3.71,3.71,0,0,1,1.89,1A2.21,2.21,0,0,1,279.62,440.15Z" style="fill:#ff9a6c"/>
    <path d="M185.89,313.26a4.29,4.29,0,0,1-.11.79c-.1.57-.24,1.32-.41,2.27-.39,2-.86,4.82-1.38,8.36a167.34,167.34,0,0,0-1.66,27.84c.15,5.45.57,10.64,1.1,15.33s1.22,8.9,1.88,12.42c.29,1.76.65,3.34.92,4.74s.53,2.59.75,3.56l.48,2.26a4.57,4.57,0,0,1,.13.79,4.09,4.09,0,0,1-.24-.77c-.14-.56-.33-1.3-.57-2.23s-.54-2.16-.84-3.55-.67-3-1-4.73c-.71-3.52-1.4-7.73-2-12.43s-1-9.91-1.15-15.38a157,157,0,0,1,1.81-27.91c.57-3.53,1.1-6.39,1.55-8.34.22-.94.38-1.69.51-2.25A4,4,0,0,1,185.89,313.26Z" style="fill:#263238"/>
    <path d="M337.18,309.4a4.68,4.68,0,0,1,.29.8l.74,2.31c.32,1,.69,2.24,1.07,3.68s.86,3.09,1.27,4.93l.69,2.88c.21,1,.43,2.05.65,3.13.48,2.17.84,4.51,1.28,7,.77,4.93,1.43,10.37,1.84,16.11s.45,11.23.36,16.21c-.09,2.49-.15,4.86-.33,7.07s-.32,4.27-.51,6.14-.42,3.56-.61,5.05-.39,2.76-.58,3.79-.31,1.8-.42,2.39a4.77,4.77,0,0,1-.18.83,4.8,4.8,0,0,1,.08-.84c.08-.6.19-1.4.32-2.41s.33-2.31.49-3.8.39-3.17.53-5,.35-3.93.45-6.14.21-4.57.28-7.05c.07-5,0-10.44-.4-16.17s-1.05-11.15-1.79-16.06c-.43-2.45-.78-4.79-1.23-6.95-.22-1.08-.43-2.13-.62-3.14l-.66-2.88c-.39-1.84-.83-3.48-1.19-4.93s-.69-2.69-1-3.7l-.64-2.34A4.9,4.9,0,0,1,337.18,309.4Z" style="fill:#263238"/>
    <path d="M288.74,246.11a695.62,695.62,0,0,0,3.45,83.16c.4,3.87.88,7.9,3,11.19,4.75,7.44,15.24,8,24.07,7.65,4.2-.15,12.87.51,15.22-3,1.55-2.3-.61-7.65,0-10.36,6.57-29.09,2.73-58.11-4.61-84.61" style="fill:#263238"/>
  </g>
</svg>