<svg xmlns="http://www.w3.org/2000/svg" viewBox="0 0 500 500"><g id="freepik--Character--inject-370"><path d="M288.89,208.4l-2.27,92.12c-.38,15.67-4.15,38.6-28.89,36.86h0c-21.35-3.12-26.29-23.63-25.91-38.25.18-6.93.31-12.71.28-13.43,0,0-23.4-2.78-24.52-26-.54-11.24.22-34.47,1.16-55.49a43.36,43.36,0,0,1,41.78-41.37l2.24-.08C277,163.27,290.1,184.17,288.89,208.4Z" style="fill:#ffbe9d"></path><path d="M232.1,285.7s14.69.34,30-10c0,0-6.78,17.26-30.07,16Z" style="fill:#eb996e"></path><path d="M248,215.15c.44.49,3.2-1.57,7.09-1.53s6.71,2,7.14,1.57c.21-.22-.24-1.09-1.47-2a9.78,9.78,0,0,0-5.72-1.85,9.37,9.37,0,0,0-5.64,1.82C248.21,214.06,247.8,214.93,248,215.15Z" style="fill:#263238"></path><path d="M247.26,224a3.14,3.14,0,0,0,3.14,3.06,3,3,0,0,0,3.14-2.95,3.14,3.14,0,0,0-3.14-3.06A3,3,0,0,0,247.26,224Z" style="fill:#263238"></path><path d="M237.29,241.8c0-.2-2.23-.5-5.84-.84-.92-.06-1.79-.21-2-.82a4.69,4.69,0,0,1,.52-2.73c.78-2.24,1.59-4.59,2.45-7,3.39-10,5.81-18.27,5.41-18.4s-3.49,7.89-6.88,17.92q-1.23,3.7-2.34,7.09c-.3,1.05-.86,2.25-.34,3.6a2.31,2.31,0,0,0,1.55,1.28,6,6,0,0,0,1.56.16C235,242.07,237.28,242,237.29,241.8Z" style="fill:#263238"></path><path d="M250.21,200.61c.34.88,3.48.34,7.19.67s6.75,1.26,7.21.45c.21-.39-.34-1.2-1.58-2a11.73,11.73,0,0,0-5.39-1.73,11.61,11.61,0,0,0-5.58.88C250.72,199.47,250.06,200.19,250.21,200.61Z" style="fill:#263238"></path><path d="M212.55,201.38c.38.72,3.44.05,7.12.07s6.7.61,7.12-.11c.18-.34-.4-1-1.66-1.6a12.82,12.82,0,0,0-5.4-1.1,13.34,13.34,0,0,0-5.45,1.13C213,200.38,212.38,201,212.55,201.38Z" style="fill:#263238"></path><path d="M287.6,225.7c.4-.19,15.82-5.3,15.88,10.62s-15.93,12.7-16,12.24S287.6,225.7,287.6,225.7Z" style="fill:#ffbe9d"></path><path d="M292.36,242.51c.07,0,.28.19.74.41a2.8,2.8,0,0,0,2.08,0c1.68-.62,3.08-3.3,3.15-6.17a9.2,9.2,0,0,0-.79-4,3.22,3.22,0,0,0-2.1-2.12,1.41,1.41,0,0,0-1.63.77c-.21.44-.11.76-.19.79s-.35-.27-.22-.92a1.72,1.72,0,0,1,.62-1,2.06,2.06,0,0,1,1.53-.42,3.91,3.91,0,0,1,2.91,2.46,9.39,9.39,0,0,1,1,4.44c-.09,3.21-1.72,6.21-4,6.89a3,3,0,0,1-2.54-.41C292.39,242.9,292.3,242.54,292.36,242.51Z" style="fill:#eb996e"></path><path d="M309.7,200.74c-3.11-5.73-3.63-12.45-5.21-18.77s-6.22-14.35-12.27-16.76c-5.35-3.31-12.53-3.15-17.19.51-.82-8.31-6.26-13.2-14.24-15.62s-21-1.63-28.82,1.2c-6.07,2.18-12,6.9-19.33,13.89a78.35,78.35,0,0,0-8.48,9.53l-7.81,21.39,5.59,11.58c.33.79.67,1.57,1.09,2.35v0l4.53,24.13c.59-6.51,1-29.23,1.53-35.74a36.45,36.45,0,0,0,26.39-11c3.71-3.82,6.69-8.66,11.55-10.85,6.26-2.81,13.5-.32,19.9,2.17l-.27-.26a29.12,29.12,0,0,1,8.74,6.81,90.62,90.62,0,0,0,2.5,38.44c.54,1.87,2.06,5.75,3.85,6.52,3.52,1.51,4.61-2.09,6.83-3.94,1.64-1.37,4-1.46,6.56-1.36,1.65-3.91,3.45-10.54,5-16.34a14.35,14.35,0,0,0,6.66.69q-.94-2.49-1.87-5a7.54,7.54,0,0,0,2.8,1.4,2.6,2.6,0,0,0,2.76-1.08C311.12,203.37,310.35,201.94,309.7,200.74Z" style="fill:#263238"></path><path d="M269.19,170a19.25,19.25,0,0,1,2.25,2.22,16.55,16.55,0,0,1,3.28,7.83,29.9,29.9,0,0,1,.37,5.91c-.07,2.14-.33,4.42-.58,6.82a61.51,61.51,0,0,0-.45,7.6,25.38,25.38,0,0,0,.37,4,8.37,8.37,0,0,0,1.49,3.95,3.49,3.49,0,0,0,3.23,1.22,5.22,5.22,0,0,0,3-1.55c1.56-1.69,2-3.88,2.45-5.82l-.49.05a19.93,19.93,0,0,0,2.64,5,6.94,6.94,0,0,0,4.42,2.62,4.46,4.46,0,0,0,2.41-.33,3.81,3.81,0,0,0,1.68-1.54,4,4,0,0,0,.57-2,2.86,2.86,0,0,0-.68-1.83l-.25.21a14.8,14.8,0,0,0,4.84,3.92,14,14,0,0,0,1.52.66,3.39,3.39,0,0,0,.55.16,2,2,0,0,0-.51-.24c-.34-.16-.85-.38-1.47-.73a15.5,15.5,0,0,1-4.67-4l-.26.21a3,3,0,0,1,0,3.45,3.52,3.52,0,0,1-1.52,1.36,4,4,0,0,1-2.18.27,6.43,6.43,0,0,1-4.1-2.49,19.2,19.2,0,0,1-2.54-4.85l-.31-.76-.18.8c-.44,1.93-.92,4-2.34,5.56a4.71,4.71,0,0,1-2.69,1.39,3,3,0,0,1-2.74-1,7.88,7.88,0,0,1-1.38-3.7,26.5,26.5,0,0,1-.37-3.94,61.12,61.12,0,0,1,.42-7.54c.24-2.4.48-4.69.53-6.86a29,29,0,0,0-.45-6,16.37,16.37,0,0,0-3.49-7.9A9.39,9.39,0,0,0,269.19,170Z" style="fill:#455a64"></path><path d="M212.56,215.3c.44.49,3.2-1.57,7.09-1.53s6.71,2,7.14,1.57c.21-.22-.24-1.09-1.47-2a9.75,9.75,0,0,0-5.71-1.85,9.45,9.45,0,0,0-5.65,1.82C212.76,214.21,212.34,215.09,212.56,215.3Z" style="fill:#263238"></path><path d="M214.89,222.83a3.15,3.15,0,0,0,3.15,3.06,3,3,0,0,0,3.13-2.95,3.14,3.14,0,0,0-3.14-3.06A3,3,0,0,0,214.89,222.83Z" style="fill:#263238"></path><path d="M206.21,172.12c-2,2.56-5.14,4.86-8.38,4.43a24.56,24.56,0,0,1-3.43-1.1c-1.16.66-1,4.55-.23,5.65a21,21,0,0,0,2.38,2.58c-3.87,1.95-7.31.86-11.34-.73a19.93,19.93,0,0,0,11.45,16.28c2,.91,4.5,1.44,6.4.28,1.67-1,2.39-3,2.93-4.93a87.41,87.41,0,0,0,3.38-21.25Z" style="fill:#263238"></path><path d="M240.66,249.61a3.21,3.21,0,0,1,2.78-1.68c1.08,0,2-.1,2.79.65a5.06,5.06,0,0,1,1.11,5.71,4.19,4.19,0,0,1-5.27,2c-1.89-.87-2.64-5.74-1.33-7.36" style="fill:#eb996e"></path><path d="M240,253.08a7.88,7.88,0,0,1,.41.91,3.3,3.3,0,0,0,1.93,1.71,4.85,4.85,0,0,0,3.77-.45,3.94,3.94,0,0,0-1.93-7.07,3.87,3.87,0,0,0-3.44,1.41,3.92,3.92,0,0,0-.8,2.48c0,.64.11,1,.06,1s-.05-.08-.11-.25a3.46,3.46,0,0,1-.15-.75,3.89,3.89,0,0,1,.71-2.71,4.18,4.18,0,0,1,3.78-1.66,4.39,4.39,0,0,1,2.13,7.95,5.16,5.16,0,0,1-4.15.39,3.43,3.43,0,0,1-2-2,2.75,2.75,0,0,1-.21-.74C240,253.17,240,253.08,240,253.08Z" style="fill:#263238"></path><path d="M269.37,169.89a14.66,14.66,0,0,0-2.36-3,15.5,15.5,0,0,0-9.34-4,19,19,0,0,0-7.05.83,28.35,28.35,0,0,0-7.36,3.58c-4.85,3.21-9.14,8-13.83,12.85a61.46,61.46,0,0,1-7.36,6.56,29.38,29.38,0,0,1-8.1,4.34,26.65,26.65,0,0,1-15.4.25,26.16,26.16,0,0,1-9.31-4.72L188,185.52c-.36-.31-.62-.62-.85-.85l-.51-.54c-.11-.12-.17-.19-.16-.2l.2.16.54.5c.24.22.52.52.88.82l1.26,1a26.88,26.88,0,0,0,9.28,4.52,26.48,26.48,0,0,0,15.15-.35,29.16,29.16,0,0,0,8-4.29,63.62,63.62,0,0,0,7.29-6.51c4.67-4.8,9-9.65,13.94-12.89a28.25,28.25,0,0,1,7.5-3.59,19.33,19.33,0,0,1,7.21-.79,15.48,15.48,0,0,1,9.44,4.23,11.82,11.82,0,0,1,1.77,2.23c.14.27.26.48.35.65S269.38,169.88,269.37,169.89Z" style="fill:#455a64"></path><polygon points="223.18 293.41 232 291.66 286.56 288.29 298.19 291.46 296.66 319.78 270.37 336.55 244.87 336.04 228.83 321.44 225.28 306.95 223.18 293.41" style="fill:#ffbe9d"></polygon><path d="M372,338a171.71,171.71,0,0,0-10.48-18.74,46.76,46.76,0,0,0-26.9-19.59l-42-11.39s-2.18,42-31.09,42-34.54-39.37-34.54-39.37l-48.65,19.41c-1.67.65-12.95,4.55-26.08,32.7-12.5,26.81-18,40.52-18,40.52L184.32,398l3.13,45.07-1.06,25.74,152.09-.34-.85-29.42.64-45.11,1.9,3.07,50.62-20.3S384.27,363.35,372,338Z" style="fill:#263238"></path><path d="M339,365.24c.23,0,.09,16.3-.3,36.4S337.85,438,337.63,438s-.09-16.3.3-36.4S338.82,365.24,339,365.24Z" style="fill:#263238"></path><path d="M176.74,356a7.11,7.11,0,0,1,.56,1.67c.3,1.09.71,2.68,1.19,4.64.95,3.94,2.13,9.4,3.23,15.48s1.88,11.62,2.36,15.63c.24,2,.42,3.64.51,4.77a7.85,7.85,0,0,1,.06,1.76,7,7,0,0,1-.38-1.72c-.2-1.29-.45-2.87-.75-4.73-.62-4-1.51-9.5-2.6-15.57s-2.18-11.53-3-15.49c-.37-1.85-.68-3.42-.94-4.7A7.88,7.88,0,0,1,176.74,356Z" style="fill:#263238"></path><path d="M138.54,384.81l-20.38,40.91a29.84,29.84,0,0,0-3.09,14.74h0a29.82,29.82,0,0,0,29.78,28.37l58.44-3.39,2.56-26.66-44.47-10.73,16.85-31.86Z" style="fill:#ffbe9d"></path><path d="M161.38,428.05c0,.19-2-.15-5.25-.13a40.44,40.44,0,0,0-12.33,2.18,37.53,37.53,0,0,0-11,5.86c-2.52,2-3.72,3.63-3.86,3.53s.21-.48.74-1.23a19.8,19.8,0,0,1,2.66-2.85,33.45,33.45,0,0,1,11.18-6.27,35.5,35.5,0,0,1,12.66-1.93,23.79,23.79,0,0,1,3.86.46A4.23,4.23,0,0,1,161.38,428.05Z" style="fill:#eb996e"></path><path d="M178.94,395.87a11.28,11.28,0,0,1-1,3.13,58.82,58.82,0,0,1-3.35,7.12,58.11,58.11,0,0,1-4.25,6.63,11.14,11.14,0,0,1-2.14,2.47c-.19-.14,2.75-4.15,5.69-9.49S178.72,395.79,178.94,395.87Z" style="fill:#eb996e"></path><path d="M388.71,468.69H320.09v-25.9L359.83,426l-14.74-30.89,39.78-16,19.42,43.2c4.51,12.55,9.12,18.51,5.19,29.93C407.44,458.17,399,468.69,388.71,468.69Z" style="fill:#ffbe9d"></path><path d="M194.41,437.23h11.44s25.81-9.33,31.12-8.44c4.78.8,22.29,12.43,25.72,14.73a2.23,2.23,0,0,1,.83,1.06h0a3.76,3.76,0,0,1-2.09,4.77l-.36.15.15.52a6.32,6.32,0,0,1,.27,2.09,2.52,2.52,0,0,1-4.69,1.09l.66,1.17a2.87,2.87,0,0,1,.36,1.57l-.06,1.07a2.87,2.87,0,0,1-2,2.57h0a2.87,2.87,0,0,1-3-.79c-2.22-2.44-7-7.33-10.26-7.87a75,75,0,0,0-10.59-.54,3.61,3.61,0,0,0-3.34,2.3h0c1.93.14,15.34,7.13,20.09,9.63a5.09,5.09,0,0,1,2.76,3.83c.17,1.48-.58,3-3.52,2.35-6.3-1.47-17.65-6.69-17.65-6.69s-5.86-1.67-9.65,1c-5.34,3.77-7.78,5.15-12.36,3.63a38.86,38.86,0,0,1-8-3.7l-9-.9S182.74,440.5,194.41,437.23Z" style="fill:#ffbe9d"></path><path d="M228.5,441.59c0,.1,1.83-.48,4.85-.68a25,25,0,0,1,20.86,8.91,47.49,47.49,0,0,1,2.87,4,5.41,5.41,0,0,0-.57-1.2,22,22,0,0,0-2-3,24.27,24.27,0,0,0-21.16-9,20.64,20.64,0,0,0-3.56.61A5.67,5.67,0,0,0,228.5,441.59Z" style="fill:#eb996e"></path><path d="M231.23,435.32a21.42,21.42,0,0,1,5.05-.88A22,22,0,0,1,248,437.76a47,47,0,0,1,9.46,8l2.6,2.75a7.37,7.37,0,0,0,1,1,8.68,8.68,0,0,0-.85-1.1c-.57-.69-1.41-1.68-2.48-2.87a43.76,43.76,0,0,0-9.47-8.19,21.47,21.47,0,0,0-12-3.25,14.2,14.2,0,0,0-3.75.69,8.54,8.54,0,0,0-1,.37C231.33,435.24,231.22,435.3,231.23,435.32Z" style="fill:#eb996e"></path><path d="M336.85,438H325.4s-25.81-9.33-31.12-8.44c-4.78.8-22.29,12.43-25.72,14.73a2.23,2.23,0,0,0-.83,1.06h0a3.77,3.77,0,0,0,2.09,4.77l.36.15-.15.52a6.25,6.25,0,0,0-.27,2.09,2.52,2.52,0,0,0,4.69,1.09l-.66,1.17a3,3,0,0,0-.36,1.57l.06,1.06a2.84,2.84,0,0,0,2,2.57h0a2.85,2.85,0,0,0,3-.78c2.22-2.45,7-7.34,10.26-7.88a76.58,76.58,0,0,1,10.6-.53,3.61,3.61,0,0,1,3.33,2.3h0c-1.93.13-15.34,7.13-20.09,9.63a5.08,5.08,0,0,0-2.76,3.82c-.17,1.49.58,3.05,3.52,2.36,6.3-1.47,17.65-6.69,17.65-6.69s5.86-1.68,9.65,1c5.34,3.77,7.78,5.15,12.36,3.63a38.54,38.54,0,0,0,8-3.7l9-.9S348.52,441.3,336.85,438Z" style="fill:#ffbe9d"></path><path d="M302.75,442.39c0,.1-1.83-.48-4.85-.67A25,25,0,0,0,277,450.63c-2,2.31-2.79,4-2.87,4a5.76,5.76,0,0,1,.57-1.19,22,22,0,0,1,2-3,24.27,24.27,0,0,1,21.16-9,21.85,21.85,0,0,1,3.56.6A6.42,6.42,0,0,1,302.75,442.39Z" style="fill:#eb996e"></path><path d="M300,436.12a21.42,21.42,0,0,0-5-.88,22.1,22.1,0,0,0-11.74,3.33,47.29,47.29,0,0,0-9.46,8l-2.6,2.76a7.37,7.37,0,0,1-1,1,8.25,8.25,0,0,1,.85-1.11c.57-.68,1.41-1.67,2.49-2.86a43.44,43.44,0,0,1,9.46-8.19,21.48,21.48,0,0,1,12-3.25,14.19,14.19,0,0,1,3.74.69,7,7,0,0,1,1,.37A1,1,0,0,1,300,436.12Z" style="fill:#eb996e"></path><path d="M390.48,427.8c-.06.09-1.55-1-4.25-2.25-.67-.3-1.41-.63-2.24-.91s-1.7-.56-2.64-.83a31.68,31.68,0,0,0-12.61-.73c-1,.17-1.88.3-2.72.53a22,22,0,0,0-2.33.65c-2.82.92-4.43,1.83-4.48,1.74a5.4,5.4,0,0,1,1.12-.67,9.76,9.76,0,0,1,1.37-.67,18.6,18.6,0,0,1,1.87-.75,21.93,21.93,0,0,1,2.35-.72,27.61,27.61,0,0,1,2.75-.58,30.29,30.29,0,0,1,12.8.73c.95.3,1.86.55,2.67.9a21,21,0,0,1,2.25,1c.69.31,1.26.67,1.78,1a12,12,0,0,1,1.28.83A5.76,5.76,0,0,1,390.48,427.8Z" style="fill:#eb996e"></path><path d="M332.27,472H189.37a7.58,7.58,0,0,1-7.57-7.26l-4.29-98.35a7.58,7.58,0,0,1,7.57-7.92h151.2a7.59,7.59,0,0,1,7.58,7.9l-4,98.35A7.58,7.58,0,0,1,332.27,472Z" style="fill:#e0e0e0"></path><path d="M332.27,472a13.79,13.79,0,0,0,1.38-.16,7.44,7.44,0,0,0,3.59-1.78,7.6,7.6,0,0,0,2.55-5.85q.15-3.93.35-9.05c.54-13.62,1.31-33.32,2.27-57.67q.36-9.14.76-19.11c.13-3.32.27-6.71.4-10.16,0-.86.1-1.75.07-2.59a7.37,7.37,0,0,0-.59-2.47,7.27,7.27,0,0,0-3.47-3.68,7.54,7.54,0,0,0-2.5-.75c-.86-.07-1.79,0-2.7,0H294.06l-104.82,0h-3.48a8.18,8.18,0,0,0-3.31.5,7.34,7.34,0,0,0-4.38,4.73,8.21,8.21,0,0,0-.3,1.63c0,.55,0,1.11,0,1.69.05,1.14.09,2.28.14,3.42l.3,6.81q.58,13.58,1.16,26.72c.76,17.52,1.49,34.41,2.19,50.51.09,2,.17,4,.26,6,0,1,.08,2,.13,3a10.34,10.34,0,0,0,.36,2.86,7.38,7.38,0,0,0,3.49,4.29,7.29,7.29,0,0,0,2.65.85c.91.1,1.89.05,2.84.06h22.21l39.86,0,57.71.08,15.69.05,4.08,0,1.39,0-1.39,0-4.08,0-15.69,0-57.71.08-39.86,0H191.33c-1,0-1.9,0-2.9-.06a7.83,7.83,0,0,1-6.53-5.46,10.88,10.88,0,0,1-.38-3c-.05-1-.09-2-.14-3q-.12-3-.26-6c-.71-16.1-1.45-33-2.22-50.51q-.57-13.14-1.17-26.72c-.1-2.26-.19-4.53-.29-6.81l-.15-3.42a16.74,16.74,0,0,1,0-1.74,8.68,8.68,0,0,1,.31-1.75,7.85,7.85,0,0,1,4.69-5.06,8.76,8.76,0,0,1,3.5-.54h3.48l104.82,0h40.32c.92,0,1.81,0,2.75.05a7.83,7.83,0,0,1,2.64.79,7.68,7.68,0,0,1,3.67,3.91,7.9,7.9,0,0,1,.62,2.61c0,.91,0,1.75-.07,2.62q-.21,5.19-.42,10.17-.42,10-.8,19.11c-1,24.34-1.85,44-2.43,57.66q-.22,5.11-.39,9a7.73,7.73,0,0,1-2.64,5.92,7.51,7.51,0,0,1-3.65,1.76,7.3,7.3,0,0,1-1,.1Z" style="fill:#263238"></path><path d="M268.5,417a7.83,7.83,0,1,1-7.83-7.83A7.84,7.84,0,0,1,268.5,417Z" style="fill:#fff"></path></g></svg>