<?xml version="1.0" encoding="utf-8"?>
<svg viewBox="0 0 500 500" xmlns="http://www.w3.org/2000/svg">
  <g id="freepik--Characters--inject-670" transform="matrix(1, 0, 0, 1, -14.135558, -58.442814)">
    <path d="M 224.639 361.875 C 226.019 363.185 225.029 366.115 225.029 366.115 C 224.921 367.045 224.861 367.979 224.849 368.915 C 224.759 371.225 216.539 389.995 216.459 390.165 C 214.169 395.335 168.269 486.775 168.269 486.775 L 146.019 471.435 C 146.019 471.435 163.319 427.355 166.759 420.965 L 195.939 381.745 C 194.559 380.425 190.139 359.605 190.139 359.605 C 190.139 359.605 188.049 352.805 188.229 351.845 C 188.409 350.885 190.929 347.625 190.929 347.625 C 190.929 347.625 191.299 345.085 192.149 344.285 C 192.999 343.485 195.009 343.555 196.609 346.165 C 198.209 348.775 196.779 351.915 196.779 351.915 L 199.609 359.865 L 208.539 343.825 C 207.269 342.705 206.929 341.395 207.219 340.745 C 207.509 340.095 212.219 337.355 214.219 336.995 C 216.219 336.635 224.439 340.235 224.729 341.415 C 225.019 342.595 222.399 348.285 222.399 348.285 L 223.739 356.365 C 224.859 357.97 225.19 359.997 224.639 361.875 Z" style="fill:#ffbf9d" transform="matrix(-1, 0, 0, -1, 371.391791, 823.744813)"/>
    <path d="M 255.098 180.14 L 253.098 253.85 C 251.998 272.17 261.738 288.09 280.098 288.68 L 281.798 288.68 C 298.89 288.242 312.78 274.752 313.718 257.68 C 314.588 241.79 315.348 224.23 315.018 215.73 C 314.348 198.13 296.668 195.85 296.668 195.85 C 296.668 195.85 296.728 185.14 296.818 179.97 L 288.758 166.27 L 268.638 159.21 L 255.098 180.14 Z" style="fill:#ffbf9d" transform="matrix(-1, 0, 0, -1, 568.110743, 447.889997)"/>
    <path d="M 294.213 249.668 C 286.082 249.896 278.186 252.45 271.463 257.028 C 271.463 257.028 276.643 243.658 294.253 244.788 L 294.213 249.668 Z" style="fill:#ff9a6c" transform="matrix(-1, 0, 0, -1, 565.716019, 501.748257)"/>
    <path d="M 264.883 206.529 C 264.856 205.167 263.755 204.07 262.393 204.049 C 261.04 203.981 259.896 205.036 259.853 206.389 C 259.874 207.752 260.98 208.848 262.343 208.859 C 263.693 208.933 264.84 207.881 264.883 206.529 Z" style="fill:#263238" transform="matrix(-1, 0, 0, -1, 524.736002, 412.908557)"/>
    <path d="M 268.28 195.202 C 267.96 194.882 266.09 196.342 263.38 196.402 C 260.67 196.462 258.66 195.162 258.38 195.502 C 258.24 195.652 258.57 196.242 259.45 196.842 C 260.634 197.623 262.032 198.018 263.45 197.972 C 264.856 197.943 266.217 197.463 267.33 196.602 C 268.17 195.942 268.44 195.342 268.28 195.202 Z" style="fill:#263238" transform="matrix(-1, 0, 0, -1, 526.672761, 393.131803)"/>
    <path d="M 289.123 205.581 C 289.091 204.223 287.991 203.132 286.633 203.111 C 285.282 203.037 284.136 204.089 284.093 205.441 C 284.119 206.803 285.22 207.9 286.583 207.921 C 287.935 207.989 289.08 206.934 289.123 205.581 Z" style="fill:#263238" transform="matrix(-1, 0, 0, -1, 573.215996, 411.031437)"/>
    <path d="M 294.81 195.142 C 294.49 194.822 292.62 196.282 289.92 196.342 C 287.22 196.402 285.19 195.102 284.92 195.442 C 284.78 195.592 285.11 196.172 285.99 196.782 C 287.175 197.561 288.572 197.956 289.99 197.912 C 291.399 197.878 292.761 197.399 293.88 196.542 C 294.7 195.882 294.97 195.282 294.81 195.142 Z" style="fill:#263238" transform="matrix(-1, 0, 0, -1, 579.742875, 393.01151)"/>
    <path d="M 269.543 196.497 C 269.543 196.647 271.223 196.897 273.953 197.177 C 274.653 197.177 275.303 197.347 275.433 197.817 C 275.513 198.53 275.37 199.25 275.023 199.877 C 274.423 201.567 273.783 203.337 273.123 205.187 C 270.473 212.757 268.583 218.967 268.883 219.067 C 269.183 219.167 271.583 213.127 274.223 205.567 C 274.889 203.694 275.496 201.91 276.043 200.217 C 276.461 199.374 276.564 198.409 276.333 197.497 C 276.123 197.001 275.694 196.632 275.173 196.497 C 274.786 196.405 274.39 196.361 273.993 196.367 C 271.253 196.307 269.553 196.337 269.543 196.497 Z" style="fill:#263238" transform="matrix(-1, 0, 0, -1, 545.305319, 415.406565)"/>
    <path d="M 296.201 186.674 C 295.811 185.994 293.201 186.784 290.011 186.934 C 286.821 187.084 284.141 186.664 283.831 187.384 C 283.701 187.724 284.251 188.334 285.391 188.864 C 288.446 190.148 291.923 189.949 294.811 188.324 C 295.901 187.664 296.391 186.994 296.201 186.674 Z" style="fill:#263238" transform="matrix(-1, 0, 0, -1, 580.053305, 376.104259)"/>
    <path d="M 268.881 187.389 C 268.311 186.779 266.111 187.449 263.461 187.499 C 260.811 187.549 258.561 187.139 258.061 187.789 C 257.831 188.109 258.191 188.719 259.181 189.289 C 261.95 190.683 265.241 190.562 267.901 188.969 C 268.831 188.389 269.091 187.709 268.881 187.389 Z" style="fill:#263238" transform="matrix(-1, 0, 0, -1, 526.943304, 377.389351)"/>
    <path d="M 325.642 224.21 C 325.352 224.35 313.642 228.1 313.712 216.05 C 313.782 204 325.862 206.57 325.882 206.91 C 325.902 207.25 325.642 224.21 325.642 224.21 Z" style="fill:#ffbf9d" transform="matrix(-1, 0, 0, -1, 639.594774, 431.319951)"/>
    <path d="M 322.84 211.398 C 322.79 211.398 322.64 211.258 322.28 211.088 C 321.776 210.886 321.214 210.886 320.71 211.088 C 319.44 211.548 318.35 213.558 318.28 215.728 C 318.249 216.758 318.444 217.781 318.85 218.728 C 319.095 219.46 319.675 220.032 320.41 220.268 C 320.907 220.405 321.43 220.164 321.65 219.698 C 321.82 219.368 321.74 219.128 321.8 219.108 C 321.86 219.088 322.06 219.308 321.96 219.808 C 321.893 220.107 321.723 220.372 321.48 220.558 C 321.147 220.805 320.731 220.913 320.32 220.858 C 319.32 220.644 318.499 219.935 318.14 218.978 C 317.636 217.949 317.385 216.814 317.41 215.668 C 317.51 213.238 318.76 210.968 320.51 210.478 C 321.164 210.297 321.864 210.418 322.42 210.808 C 322.82 211.108 322.89 211.378 322.84 211.398 Z" style="fill:#ff9a6c" transform="matrix(-1, 0, 0, -1, 640.262435, 431.267774)"/>
    <path d="M 276.355 227.914 C 276.775 227.914 276.835 225.184 279.235 223.264 C 281.635 221.344 284.585 221.714 284.615 221.324 C 284.615 221.154 283.965 220.774 282.725 220.724 C 281.106 220.666 279.519 221.184 278.245 222.184 C 277.021 223.144 276.217 224.543 276.005 226.084 C 275.875 227.234 276.165 227.924 276.355 227.914 Z" style="fill:#263238" transform="matrix(-1, 0, 0, -1, 560.587557, 448.633702)"/>
    <path d="M 333.228 183.197 C 333.007 183.903 332.523 184.497 331.878 184.857 C 330.498 185.667 328.878 185.557 327.368 185.577 C 323.542 185.637 319.78 186.567 316.368 188.297 C 317.558 188.886 318.648 189.659 319.598 190.587 C 321.538 192.537 322.598 195.517 321.738 198.107 C 321.598 198.603 321.236 199.005 320.758 199.197 C 319.978 199.437 319.298 198.667 318.758 198.057 C 316.978 196.057 315.328 195.177 312.648 195.437 C 311.037 195.527 309.467 195.981 308.058 196.767 L 307.908 196.937 C 307.278 197.577 306.668 198.197 306.058 198.787 C 301.508 203.267 297.598 206.367 293.578 207.967 C 287.688 210.307 277.848 211.227 271.718 209.597 C 265.588 207.967 260.108 202.967 259.278 196.677 C 255.828 199.567 250.668 199.527 246.488 197.827 L 246.378 197.827 C 241.758 196.197 239.088 191.277 237.758 186.517 L 237.548 185.727 C 235.989 183.202 233.845 181.089 231.298 179.567 C 230.848 179.307 230.298 178.987 230.298 178.467 C 230.31 177.939 230.599 177.457 231.058 177.197 C 232.184 176.401 233.477 175.871 234.838 175.647 C 234.425 174.506 233.909 173.405 233.298 172.357 C 232.778 171.467 232.158 170.357 232.618 169.467 C 233.059 168.773 233.88 168.42 234.688 168.577 C 235.47 168.755 236.206 169.096 236.848 169.577 C 236.338 168.337 235.848 167.087 235.308 165.837 C 237.003 165.56 238.739 165.683 240.378 166.197 C 241.378 161.757 242.168 153.517 243.328 150.507 C 246.528 150.507 247.328 150.817 248.918 150.287 C 250.998 149.607 250.218 145.907 252.918 146.967 C 254.298 147.507 256.398 152.757 256.858 154.167 C 259.906 163.559 260.895 173.498 259.758 183.307 C 261.683 185.398 263.996 187.096 266.568 188.307 L 266.358 188.117 C 271.278 189.847 276.838 191.557 281.528 189.267 C 285.158 187.487 287.298 183.727 290.028 180.737 C 295.188 175.077 301.028 172.057 308.668 171.737 C 309.388 166.427 309.668 157.737 309.908 152.737 L 314.098 162.687 C 314.424 163.258 314.721 163.846 314.988 164.447 L 315.078 164.627 C 315.489 165.593 315.95 166.538 316.458 167.457 C 319.158 165.097 323.108 168.737 320.968 171.617 C 320.554 172.196 320.047 172.703 319.468 173.117 C 320.713 171.931 322.487 171.48 324.148 171.927 C 325.809 172.442 326.917 174.009 326.848 175.747 C 326.704 176.918 325.939 177.92 324.848 178.367 C 327.035 178.2 329.222 178.691 331.128 179.777 C 332.438 180.437 333.648 181.607 333.228 183.197 Z" style="fill:#263238" transform="matrix(-1, 0, 0, -1, 563.610767, 357.197318)"/>
    <path d="M 324.533 192.387 C 323.905 191.889 323.317 191.344 322.773 190.757 C 321.387 189.069 320.463 187.049 320.093 184.897 C 319.799 183.422 319.652 181.921 319.653 180.417 C 319.653 178.787 319.793 177.047 319.923 175.217 C 320.099 173.296 320.152 171.365 320.083 169.437 C 320.035 168.411 319.905 167.391 319.693 166.387 C 319.558 165.295 319.133 164.259 318.463 163.387 C 317.845 162.684 316.902 162.361 315.983 162.537 C 315.114 162.697 314.323 163.14 313.733 163.797 C 312.77 165.105 312.179 166.65 312.023 168.267 L 312.393 168.267 C 311.863 166.938 311.145 165.692 310.263 164.567 C 309.407 163.522 308.183 162.845 306.843 162.677 C 306.219 162.609 305.589 162.717 305.023 162.987 C 304.493 163.256 304.06 163.682 303.783 164.207 C 303.512 164.681 303.381 165.222 303.403 165.767 C 303.42 166.276 303.619 166.761 303.963 167.137 L 304.143 166.977 C 302.832 165.437 301.123 164.289 299.203 163.657 L 298.783 163.547 C 298.905 163.619 299.036 163.676 299.173 163.717 C 299.443 163.827 299.823 163.987 300.313 164.237 C 301.707 164.951 302.945 165.937 303.953 167.137 L 304.143 166.967 C 303.554 166.205 303.51 165.155 304.033 164.347 C 304.294 163.886 304.688 163.513 305.163 163.277 C 305.674 163.038 306.242 162.948 306.803 163.017 C 308.053 163.183 309.192 163.824 309.983 164.807 C 310.82 165.911 311.494 167.13 311.983 168.427 L 312.233 168.987 L 312.353 168.377 C 312.516 166.835 313.082 165.362 313.993 164.107 C 314.516 163.521 315.22 163.127 315.993 162.987 C 316.775 162.833 317.581 163.103 318.113 163.697 C 318.717 164.51 319.106 165.463 319.243 166.467 C 319.446 167.456 319.576 168.459 319.633 169.467 C 319.703 171.381 319.656 173.298 319.493 175.207 C 319.373 177.037 319.253 178.777 319.263 180.427 C 319.273 181.953 319.437 183.474 319.753 184.967 C 320.162 187.155 321.145 189.195 322.603 190.877 C 323.156 191.486 323.808 191.997 324.533 192.387 Z" style="fill:#455a64" transform="matrix(-1, 0, 0, -1, 623.315955, 354.876746)"/>
    <path d="M 298.25 155.46 C 298.25 155.46 298.25 155.41 298.11 155.34 L 297.67 155.01 C 297.434 154.833 297.187 154.673 296.93 154.53 C 296.583 154.321 296.226 154.131 295.86 153.96 C 293.5 152.881 290.909 152.404 288.32 152.57 C 284.465 152.81 280.763 154.161 277.66 156.46 C 273.919 159.301 270.795 162.873 268.48 166.96 C 267.18 169.09 266.13 171.27 264.97 173.29 C 263.902 175.257 262.555 177.059 260.97 178.64 C 259.556 180.07 257.806 181.123 255.88 181.7 C 255.008 181.94 254.103 182.041 253.2 182 C 252.362 181.947 251.535 181.786 250.74 181.52 C 249.375 181.045 248.128 180.284 247.08 179.29 C 246.28 178.538 245.604 177.664 245.08 176.7 C 244.673 175.857 244.37 174.967 244.18 174.05 C 244.171 174.113 244.171 174.177 244.18 174.24 C 244.18 174.39 244.18 174.56 244.26 174.78 C 244.404 175.469 244.626 176.14 244.92 176.78 C 245.432 177.782 246.108 178.691 246.92 179.47 C 247.981 180.506 249.253 181.301 250.65 181.8 C 251.466 182.089 252.316 182.267 253.18 182.33 C 254.116 182.38 255.054 182.282 255.96 182.04 C 257.971 181.458 259.799 180.37 261.27 178.88 C 262.874 177.278 264.238 175.452 265.32 173.46 C 266.49 171.46 267.55 169.25 268.83 167.14 C 271.116 163.1 274.194 159.563 277.88 156.74 C 280.924 154.484 284.55 153.144 288.33 152.88 C 290.88 152.694 293.439 153.123 295.79 154.13 C 296.636 154.524 297.457 154.968 298.25 155.46 Z" style="fill:#455a64" transform="matrix(-1, 0, 0, -1, 542.423223, 334.880474)"/>
    <path d="M 261.303 174.625 C 261.117 174.446 260.904 174.298 260.673 174.185 C 260.081 173.801 259.459 173.466 258.813 173.185 C 257.842 172.77 256.838 172.436 255.813 172.185 C 254.568 171.898 253.299 171.727 252.023 171.675 C 250.745 171.634 249.466 171.714 248.203 171.915 C 247.182 172.085 246.179 172.343 245.203 172.685 C 244.535 172.906 243.887 173.181 243.263 173.505 C 243.023 173.603 242.801 173.738 242.603 173.905 C 242.603 173.975 243.603 173.475 245.293 172.965 C 246.274 172.662 247.277 172.434 248.293 172.285 C 249.532 172.119 250.783 172.052 252.033 172.085 C 253.283 172.14 254.528 172.297 255.753 172.555 C 256.752 172.782 257.735 173.079 258.693 173.445 C 260.333 174.125 261.273 174.695 261.303 174.625 Z" style="fill:#455a64" transform="matrix(-1, 0, 0, -1, 503.906018, 346.29542)"/>
    <polygon points="262.943 440.77 321.523 440.33 312.133 470.19 257.583 464.9 262.943 440.77" style="fill:#263238" transform="matrix(-1, 0, 0, -1, 579.105994, 910.519972)"/>
    <path d="M 277.173 451.25 C 284.44 446.626 292.859 444.132 301.473 444.05 C 314.873 444.05 321.313 446.93 321.313 446.93 L 324.243 437.57 L 338.743 334.76 L 335.643 262.25 L 251.933 261 L 276.823 349.17 L 274.383 441.47 L 277.173 451.25 Z" style="fill:#f5f5f5" transform="matrix(-1, 0, 0, -1, 590.676019, 712.250022)"/>
    <path d="M 267.523 447.92 L 241.793 459.05 L 236.163 468.38 L 232.913 470.16 L 233.733 452.65 C 233.733 452.54 236.463 417.27 236.403 415.1 C 235.473 385.88 233.283 255.01 233.283 255.01 L 268.393 254.89 L 271.463 259.12 L 268.983 267.05 L 269.783 338.05 L 270.993 400.82 L 267.523 447.92 Z" style="fill:#B0BEC5" transform="matrix(-1, 0, 0, -1, 504.375998, 725.050026)"/>
    <path d="M 187.793 437.54 C 187.793 437.54 193.973 437.88 204.363 417.43 C 212.483 401.43 231.733 366.68 231.733 366.68 C 231.733 366.68 261.663 315.35 268.733 294.25 L 268.353 288.37 L 247.733 276 L 241.733 279.67 L 211.503 327.82 L 208.273 333.45 L 184.213 365.67 L 158.703 410.06 L 187.793 437.54 Z" style="fill:#B0BEC5" transform="matrix(-1, 0, 0, -1, 427.436011, 713.540353)"/>
    <path d="M 350.404 392.02 C 349.544 408.62 345.714 439.71 345.704 440.54 C 345.704 441.16 343.094 469.92 343.094 469.92 L 334.164 459.92 L 304.074 449.46 L 304.074 363.86 L 310.994 316.62 L 315.664 251.87 L 352.084 251.25 C 352.084 251.25 351.324 285.39 352.084 309.89 C 353.024 336.8 351.264 375.42 350.404 392.02 Z" style="fill:#B0BEC5" transform="matrix(-1, 0, 0, -1, 656.426804, 721.170033)"/>
    <path d="M 352.493 272 L 341.733 338.62 L 340.793 349.38 L 344.423 352.63 C 344.423 352.63 342.793 407.42 344.423 420.09 C 346.053 432.76 346.673 438.74 349.363 445.51 C 353.253 455.3 371.003 462.14 371.003 462.14 L 374.003 379.98 L 382.253 274.86 L 352.493 272 Z" style="fill:#B0BEC5" transform="matrix(-1, 0, 0, -1, 723.045949, 734.140011)"/>
    <path d="M 369.633 469.32 L 343.633 466.8 C 344.223 462.01 344.533 459.6 344.533 459.6 L 370.293 459.6 L 369.633 469.32 Z" style="fill:#ffbf9d" transform="matrix(-1, 0, 0, -1, 713.925952, 928.920008)"/>
    <path d="M 340.673 469.27 C 340.673 469.27 340.823 468.66 340.983 467.49 C 341.143 466.32 341.353 464.59 341.613 462.36 C 342.113 457.9 342.793 451.44 343.613 443.45 C 344.433 435.46 345.283 425.95 346.073 415.36 C 346.863 404.77 347.593 393.14 348.433 380.93 C 348.433 380.69 348.433 380.45 348.433 380.23 C 348.363 374.17 348.673 368.23 348.963 362.51 C 349.253 356.79 349.613 351.26 349.963 346.01 C 350.653 335.5 351.353 326.01 351.963 318.12 C 352.573 310.23 353.053 303.79 353.383 299.33 C 353.553 297.13 353.673 295.42 353.763 294.23 L 353.853 292.9 C 353.853 292.6 353.853 292.44 353.853 292.44 C 353.853 292.44 353.853 292.59 353.783 292.89 C 353.713 293.19 353.703 293.65 353.653 294.22 C 353.543 295.41 353.383 297.12 353.173 299.31 C 352.803 303.77 352.263 310.18 351.593 318.09 C 350.923 326 350.223 335.47 349.503 345.98 C 349.153 351.23 348.793 356.75 348.503 362.48 C 348.213 368.21 347.893 374.14 347.963 380.25 C 347.963 380.47 347.963 380.71 347.963 380.95 C 347.143 393.17 346.353 404.8 345.643 415.39 C 344.933 425.98 344.013 435.49 343.303 443.48 C 342.593 451.47 341.933 457.91 341.513 462.4 C 341.283 464.61 341.103 466.34 340.973 467.54 C 340.913 468.13 340.863 468.54 340.813 468.87 C 340.759 469.001 340.712 469.134 340.673 469.27 Z" style="fill:#263238" transform="matrix(-1, 0, 0, -1, 694.525988, 761.709973)"/>
    <path d="M 324.128 261.71 C 324.075 261.825 324.038 261.946 324.018 262.07 C 323.948 262.36 323.858 262.72 323.758 263.15 C 323.528 264.15 323.218 265.53 322.838 267.24 C 322.078 270.81 321.018 275.78 319.768 281.61 L 320.198 281.52 C 317.758 278.05 315.048 274.18 312.198 270.11 L 310.358 267.51 L 309.898 266.85 L 309.898 267.65 C 309.818 276.41 310.218 284.2 310.678 289.78 C 310.898 292.57 311.128 294.78 311.308 296.35 C 311.398 297.08 311.478 297.67 311.538 298.12 C 311.547 298.331 311.584 298.539 311.648 298.74 C 311.672 298.531 311.672 298.319 311.648 298.11 C 311.648 297.66 311.578 297.11 311.518 296.33 C 311.408 294.73 311.248 292.5 311.048 289.75 C 310.678 284.17 310.348 276.4 310.438 267.66 L 309.968 267.81 L 311.798 270.41 L 319.798 281.8 L 320.118 282.25 L 320.228 281.71 C 321.398 275.86 322.398 270.88 323.108 267.3 C 323.438 265.58 323.698 264.2 323.898 263.19 C 323.968 262.74 324.028 262.38 324.078 262.09 C 324.128 261.8 324.188 261.71 324.128 261.71 Z" style="fill:#263238" transform="matrix(-1, 0, 0, -1, 634.040884, 560.449979)"/>
    <path d="M 259.483 294.34 C 259.574 294.193 259.648 294.035 259.703 293.87 L 260.223 292.5 L 262.223 287.43 C 263.873 283.12 266.313 277.2 268.673 270.43 L 269.043 269.43 L 268.253 270.21 L 266.473 271.97 L 258.663 279.55 C 258.363 279.85 258.083 280.15 257.823 280.11 C 257.563 280.07 257.373 279.77 257.263 279.42 C 257.073 278.69 256.893 277.91 256.713 277.19 C 256.363 275.74 256.033 274.39 255.713 273.14 L 254.263 267.3 L 253.833 265.75 C 253.793 265.562 253.729 265.381 253.643 265.21 C 253.651 265.402 253.678 265.593 253.723 265.78 L 254.053 267.38 C 254.373 268.84 254.813 270.84 255.353 273.27 C 255.633 274.52 255.933 275.87 256.263 277.33 C 256.443 278.06 256.593 278.8 256.803 279.6 C 256.858 279.819 256.953 280.025 257.083 280.21 C 257.241 280.432 257.483 280.58 257.753 280.62 C 258.373 280.62 258.683 280.18 258.973 279.93 L 266.773 272.25 L 268.543 270.49 L 268.113 270.23 C 265.773 277.01 263.383 282.96 261.823 287.3 C 261.023 289.47 260.413 291.22 260.013 292.44 C 259.813 293.04 259.673 293.52 259.573 293.84 C 259.527 294.004 259.497 294.171 259.483 294.34 Z" style="fill:#263238" transform="matrix(-1, 0, 0, -1, 522.686, 559.549989)"/>
    <path d="M 236.208 453.34 C 236.223 453.21 236.223 453.08 236.208 452.95 L 236.208 451.83 C 236.208 450.83 236.208 449.37 236.158 447.52 C 236.098 443.75 235.998 438.34 235.878 431.67 C 235.598 418.26 235.198 399.79 234.768 379.38 C 234.338 358.97 233.768 340.49 233.498 327.08 C 233.308 320.41 233.158 315 233.058 311.23 C 232.988 309.38 232.938 307.94 232.908 306.92 C 232.908 306.45 232.908 306.08 232.908 305.8 C 232.918 305.674 232.918 305.546 232.908 305.42 C 232.899 305.547 232.899 305.673 232.908 305.8 L 232.908 306.92 C 232.908 307.92 232.908 309.39 232.908 311.23 C 232.978 315.01 233.068 320.41 233.188 327.08 C 233.478 340.49 233.868 358.97 234.308 379.39 C 234.748 399.81 235.248 418.27 235.578 431.68 C 235.758 438.35 235.908 443.76 236.018 447.53 C 236.078 449.38 236.128 450.82 236.168 451.84 C 236.168 452.31 236.168 452.68 236.168 452.96 C 236.168 453.088 236.181 453.215 236.208 453.34 Z" style="fill:#263238" transform="matrix(-1, 0, 0, -1, 469.120503, 758.760008)"/>
    <path d="M 212.853 386.45 C 212.853 386.31 205.743 384.89 196.913 383.29 C 188.083 381.69 180.913 380.51 180.913 380.65 C 180.913 380.79 188.023 382.2 196.853 383.81 C 205.683 385.42 212.833 386.59 212.853 386.45 Z" style="fill:#263238" transform="matrix(-1, 0, 0, -1, 393.765971, 767.100089)"/>
    <path d="M 184.763 433.17 C 184.833 433.05 179.163 430.08 172.123 426.56 C 165.083 423.04 159.303 420.28 159.233 420.41 C 159.163 420.54 164.833 423.5 171.883 427.02 C 178.933 430.54 184.703 433.3 184.763 433.17 Z" style="fill:#263238" transform="matrix(-1, 0, 0, -1, 343.996029, 853.57996)"/>
    <path d="M 369.173 454.295 C 368.874 454.141 368.554 454.033 368.223 453.975 C 367.603 453.795 366.693 453.575 365.573 453.325 C 359.7 452.077 353.706 451.484 347.703 451.555 C 346.553 451.555 345.623 451.615 344.973 451.665 C 344.635 451.667 344.299 451.71 343.973 451.795 C 345.206 451.908 346.445 451.952 347.683 451.925 C 349.983 451.985 353.143 452.125 356.623 452.465 C 360.103 452.805 363.233 453.295 365.493 453.695 C 367.753 454.095 369.153 454.365 369.173 454.295 Z" style="fill:#263238" transform="matrix(-1, 0, 0, -1, 713.145981, 905.855344)"/>
    <path d="M 361.053 304.45 C 359.2 306.128 357.466 307.933 355.863 309.85 C 354.131 311.653 352.528 313.575 351.063 315.6 C 352.918 313.925 354.652 312.12 356.253 310.2 C 357.984 308.397 359.588 306.475 361.053 304.45 Z" style="fill:#263238" transform="matrix(-1, 0, 0, -1, 712.116042, 620.050017)"/>
  </g>
</svg>