<svg version="1.2" xmlns="http://www.w3.org/2000/svg" viewBox="0 0 500 500" width="500" height="500"><style>.a{fill:#263238}.b{fill:#ffbf9d}.c{fill:#ff9a6c}.d{fill:#455a64}</style><path class="a" d="m293.7 147.9c1.6-12.2 1.5-11.8 2.9-23.4 2.8-22.7 9.7-48.4 42-46.8 0 0 24.3 1.1 31.9 18.4 4 9.4 5.4 41.8 7 71q0 0.1 0 0.3 0 0.2 0.1 0.4 0 0.2 0 0.3 0.1 0.2 0.2 0.4l1.5 4.4q0.8 2.1 1.4 4.3 0.6 2.2 1 4.5 0.5 2.2 0.8 4.5 0.3 2.3 0.4 4.5l2.5 40.6q0.1 1-0.3 1.9-0.3 1-1 1.7-0.6 0.8-1.5 1.2-0.9 0.4-1.9 0.5c-10.9 0.6-35.8-0.5-40.6-2.2-4.9-1.8-9.6-4.1-14-6.8-4.4-2.8-8.6-6-12.3-9.6-3.7-3.6-7.1-7.7-9.9-12-2.9-4.3-5.3-9-7.2-13.8-0.5-1.3-7.6-1.9-8.9-2.4-2.2-0.9 5.6-39.6 5.9-41.9z"/><path class="b" d="m344.9 88.1l-2.1-1.9-21.6 9.3q-1.1 0.1-2.2 0.6-1 0.4-1.8 1.3-0.7 0.8-1.2 1.9-0.4 1-0.4 2.2l1.8 71c0.1 4.8-1.2 10.4 1.8 14.2l3.5 4.8c7.2 9.1 23.5 5.7 28.8-4.6q0.2-0.2 0.3-0.5 0.1-0.2 0.2-0.4 0-0.3 0.1-0.5 0.1-0.2 0.2-0.5 0-0.2 0-0.4 0.1-0.2 0.1-0.4 0.1-0.2 0.1-0.4 0-0.2 0-0.4c0.6-5.7 0.5-10.7 0.5-10.7 0.2-6.2 0.3-8.8 0.3-8.8 0 0.1 13.3-1.8 16.6-19 1.6-8.6 1-20.3 0.2-31.9-1.1-15.8-12.4-25.2-25.2-24.9z"/><path class="a" d="m341.6 125.7q0 0.5-0.2 0.9-0.1 0.4-0.5 0.7-0.3 0.3-0.7 0.4-0.4 0.2-0.8 0.2-0.4 0-0.8-0.1-0.4-0.2-0.7-0.4-0.4-0.3-0.5-0.7-0.2-0.4-0.2-0.8 0-0.5 0.1-0.9 0.2-0.4 0.5-0.7 0.3-0.3 0.7-0.5 0.4-0.1 0.9-0.1 0.4-0.1 0.8 0.1 0.4 0.1 0.7 0.4 0.3 0.3 0.5 0.7 0.2 0.4 0.2 0.8z"/><path class="a" d="m363 125.8q0 0.4-0.2 0.8-0.1 0.4-0.5 0.7-0.3 0.3-0.7 0.5-0.4 0.2-0.8 0.2-0.4 0-0.8-0.2-0.4-0.1-0.8-0.4-0.3-0.3-0.4-0.7-0.2-0.4-0.2-0.8 0-0.4 0.1-0.8 0.2-0.4 0.5-0.7 0.3-0.3 0.7-0.5 0.4-0.2 0.9-0.2 0.4 0 0.8 0.2 0.4 0.1 0.7 0.4 0.3 0.3 0.5 0.7 0.2 0.4 0.2 0.8z"/><path class="a" d="m367.9 117.7c-0.3 0.3-1.9-1-4.3-1-2.4-0.1-4.2 1.1-4.4 0.8-0.2-0.2 0.1-0.7 0.9-1.2q0.4-0.3 0.8-0.5 0.5-0.2 0.9-0.3 0.5-0.1 0.9-0.2 0.5 0 1 0 0.4 0 0.9 0.1 0.4 0 0.9 0.2 0.4 0.2 0.8 0.4 0.4 0.2 0.8 0.5c0.7 0.6 0.9 1.1 0.8 1.2z"/><path class="a" d="m343.7 118.5c-0.3 0.3-1.8-1.2-4.2-1.5-2.3-0.3-4.2 0.7-4.5 0.3-0.1-0.1 0.3-0.6 1.1-1q0.4-0.2 0.9-0.4 0.4-0.1 0.9-0.2 0.4-0.1 0.9-0.1 0.5 0 0.9 0 0.5 0.1 0.9 0.2 0.5 0.2 0.9 0.4 0.4 0.2 0.8 0.4 0.4 0.3 0.7 0.6c0.7 0.7 0.9 1.2 0.7 1.3z"/><path class="a" d="m352.4 135.7c0-0.1 1.5-0.3 3.9-0.6 0.6 0 1.2-0.2 1.3-0.6q0.1-0.2 0-0.4 0-0.3 0-0.5-0.1-0.2-0.1-0.5-0.1-0.2-0.2-0.4-0.8-2.2-1.7-4.7c-2.3-6.6-4-12.1-3.7-12.2 0.3-0.1 2.3 5.2 4.7 11.9l1.6 4.7q0.1 0.3 0.2 0.6 0.1 0.3 0.1 0.6 0 0.3 0 0.6 0 0.3-0.1 0.6 0 0.2-0.1 0.3-0.1 0.2-0.3 0.3-0.1 0.1-0.3 0.2-0.1 0-0.3 0.1-0.1 0-0.2 0-0.1 0.1-0.3 0.1-0.1 0-0.2 0-0.1 0-0.3 0-0.5 0-1 0.1-0.5 0-1 0-0.5 0-1-0.1-0.5 0-1-0.1z"/><path class="c" d="m353.3 164q-3 0-6-0.5-3-0.4-6-1.3-2.9-0.9-5.6-2.1-2.8-1.3-5.4-2.9c-1.7-1.1 5.5 12.1 22.9 11z"/><path class="c" d="m351.3 141.4q-0.4-0.4-0.8-0.8-0.4-0.3-0.9-0.5-0.5-0.2-1.1-0.3-0.5-0.1-1-0.1-0.4 0-0.8 0.1-0.4 0.2-0.8 0.3-0.3 0.2-0.6 0.5-0.3 0.2-0.6 0.5-0.2 0.3-0.4 0.6-0.1 0.4-0.2 0.8 0 0.4 0.1 0.7 0 0.4 0.2 0.7 0.3 0.4 0.7 0.6 0.3 0.2 0.8 0.4 0.4 0.1 0.8 0.1 0.4 0 0.8-0.2 0.5-0.1 0.9-0.3 0.4-0.2 0.8-0.4 0.4-0.2 0.7-0.5 0.4-0.2 0.7-0.5 0.1-0.1 0.2-0.2 0.1 0 0.2-0.1 0.1-0.1 0.2-0.2 0.1-0.1 0.1-0.2 0.1-0.1 0.1-0.2 0.1-0.1 0.1-0.3 0-0.1-0.1-0.2 0-0.1-0.1-0.2"/><path class="a" d="m345.4 137.2c0.4 0 0.3 2.5 2.5 4.4 2.1 1.9 4.9 1.7 4.9 2.1 0 0.2-0.6 0.5-1.8 0.5q-0.6 0-1.1-0.1-0.6-0.1-1.1-0.3-0.5-0.2-1-0.5-0.5-0.3-0.9-0.7-0.4-0.3-0.8-0.8-0.3-0.4-0.6-0.9-0.2-0.5-0.4-1-0.1-0.5-0.2-1c0-1.1 0.3-1.8 0.5-1.7z"/><path class="a" d="m345.8 106.9c-0.3 0.6-2.7 0-5.5 0-2.8 0-5.2 0.4-5.4-0.2-0.2-0.3 0.3-0.8 1.3-1.3q1-0.5 2-0.7 1.1-0.2 2.2-0.2 1 0 2.1 0.3 1 0.2 2 0.7c1 0.5 1.4 1.1 1.3 1.4z"/><path class="a" d="m367.3 107.5c-0.4 0.5-2-0.1-4-0.2-1.9 0-3.6 0.3-4-0.3-0.1-0.3 0.1-0.8 0.9-1.3q0.7-0.4 1.6-0.6 0.8-0.2 1.7-0.2 0.9 0.1 1.7 0.4 0.8 0.3 1.5 0.8c0.6 0.6 0.8 1.1 0.6 1.4z"/><path class="a" d="m316.7 131.8c0 0 12.3 3.5 18.5-26.8 2.2-10.4 11.5-18.9 11.5-18.9l-3.9-1.1c0 0-23.9 7.3-24.3 7.6-0.4 0.3-5.8 12.6-5.8 12.6z"/><path class="b" d="m319.7 130.6c0-1.3-1.4-4.4-2.6-4.6-3.4-0.6-9.5-0.5-9.8 8.1-0.4 11.8 11.5 9.8 11.5 9.5 0-0.4 0.8-8.5 0.9-13z"/><path class="c" d="m315.4 139c-0.1 0-0.2 0.1-0.6 0.3q-0.2 0.1-0.4 0.1-0.2 0-0.4 0-0.2 0-0.4 0-0.2 0-0.3-0.1c-1.3-0.5-2.2-2.5-2.2-4.7q0-0.3 0-0.7 0.1-0.4 0.1-0.8 0.1-0.3 0.2-0.7 0.2-0.3 0.3-0.7 0.1-0.3 0.3-0.5 0.1-0.2 0.3-0.4 0.3-0.2 0.5-0.4 0.3-0.1 0.5-0.2 0.2 0 0.4 0 0.2 0 0.3 0.1 0.2 0.1 0.3 0.2 0.2 0.1 0.2 0.3c0.2 0.3 0.1 0.6 0.2 0.6 0 0 0.2-0.2 0.1-0.7q0-0.1 0-0.2-0.1-0.1-0.1-0.2-0.1-0.1-0.2-0.2 0-0.1-0.1-0.1-0.1-0.1-0.3-0.2-0.1-0.1-0.2-0.1-0.2-0.1-0.3-0.1-0.2 0-0.3 0-0.4 0.1-0.7 0.2-0.4 0.2-0.7 0.4-0.3 0.2-0.5 0.5-0.2 0.3-0.3 0.7-0.2 0.3-0.4 0.7-0.1 0.4-0.3 0.8-0.1 0.5-0.1 0.9-0.1 0.4-0.1 0.8c0 2.4 1.2 4.7 2.9 5.2q0.2 0.1 0.4 0.1 0.3 0.1 0.5 0 0.3 0 0.5-0.1 0.2-0.1 0.5-0.2c0.3-0.4 0.4-0.6 0.4-0.6z"/><path class="a" d="m324.9 125.8q0.2 0 0.4 0 0.2-0.1 0.5-0.1 0.2-0.1 0.4-0.1 0.2-0.1 0.4-0.2 0.6-0.1 1.2-0.4 0.5-0.3 1-0.6 0.6-0.3 1.1-0.7 0.4-0.3 0.9-0.8 0.3-0.3 0.6-0.6 0.2-0.3 0.5-0.6 0.3-0.4 0.5-0.7 0.3-0.3 0.5-0.7 0.3-0.4 0.5-0.8 0.2-0.5 0.4-0.9 0.2-0.4 0.4-0.9 0.2-0.4 0.4-0.9 0.4-1 0.7-2.1 0.3-1.1 0.6-2.2 0.3-1 0.5-2.1 0.3-1.1 0.5-2.2c0.8-3.1 1.6-6 2.5-8.6q0.4-0.9 0.7-1.7 0.3-0.9 0.7-1.7 0.4-0.9 0.7-1.7 0.4-0.8 0.9-1.6 0.3-0.6 0.6-1.1 0.3-0.6 0.6-1.1 0.3-0.5 0.7-1 0.3-0.5 0.7-1c0.3-0.5 0.6-0.9 0.8-1.1q0 0 0.1-0.1 0 0 0-0.1 0.1 0 0.1-0.1 0.1 0 0.1-0.1 0 0.1-0.1 0.1 0 0.1 0 0.1-0.1 0.1-0.1 0.1 0 0.1-0.1 0.1c-0.1 0.3-0.4 0.6-0.7 1.1q-0.4 0.5-0.7 1.1-0.3 0.5-0.6 1-0.4 0.5-0.7 1.1-0.2 0.5-0.5 1.1-0.4 0.8-0.8 1.6-0.4 0.8-0.8 1.7-0.3 0.8-0.7 1.7-0.3 0.8-0.6 1.7c-0.9 2.6-1.7 5.5-2.5 8.6q-0.2 1.1-0.4 2.2-0.3 1.1-0.6 2.1-0.3 1.1-0.6 2.2-0.4 1.1-0.7 2.1-0.2 0.5-0.4 0.9-0.2 0.5-0.4 0.9-0.2 0.5-0.5 0.9-0.2 0.4-0.5 0.8-0.2 0.4-0.5 0.8-0.2 0.3-0.5 0.6-0.3 0.4-0.6 0.7-0.3 0.3-0.6 0.6-0.4 0.4-0.9 0.8-0.5 0.4-1.1 0.7-0.5 0.3-1.1 0.5-0.5 0.3-1.1 0.5-0.3 0-0.5 0.1-0.2 0-0.4 0.1-0.2 0-0.5 0-0.2 0-0.4 0z"/><path class="d" d="m299.4 122.2q0 0 0-0.1 0.1-0.1 0.1-0.1 0-0.1 0-0.1 0.1-0.1 0.1-0.2 0.3-0.5 0.6-1.4c0.6-1.2 1.5-2.9 2.7-5 1.2-2 2.7-4.5 4.5-7.1 1.8-2.6 3.9-5.4 6.3-8.2 2.4-2.7 4.8-5.3 7.1-7.4 2.3-2.2 4.5-4 6.4-5.6 1.9-1.5 3.5-2.6 4.6-3.4l1.3-0.8q0-0.1 0.1-0.1 0 0 0.1-0.1 0 0 0.1 0 0-0.1 0.1-0.1c0.1 0-0.1 0.1-0.4 0.4l-1.2 0.9c-1.1 0.8-2.6 2-4.4 3.5-1.9 1.5-4 3.4-6.3 5.6-2.3 2.2-4.7 4.7-7.1 7.5-2.4 2.7-4.4 5.5-6.3 8.1-1.8 2.6-3.3 5-4.6 7-1.2 2-2.1 3.7-2.8 4.9l-0.7 1.4q0 0-0.1 0.1 0 0.1 0 0.1-0.1 0.1-0.1 0.1-0.1 0.1-0.1 0.1z"/><g style="opacity:.2"></g><path class="d" d="m260.3 232.8c-0.2-0.9 4.3-17.4 11.2-33.1 2.6-5.7 4.4-9.7 7-12.2q1-0.9 2-1.7 1-0.8 2.1-1.5 1.1-0.7 2.3-1.4 1.1-0.6 2.3-1.1l27.6-9.7c0 0 3.6 11.7 22.2 12.1 14.5 0.3 15.6-14.1 15.6-14.1 0 0 34.8 6.9 42.4 13.6 7.6 6.8 19.8 44.2 19.8 44.2l-32.5 9.1-3.5 41.8 15 25.7c0 0-35.8 19.9-56.2 18.9-20.4-1-54.5-16.1-54.5-16.1l12.5-26.1-4.2-38.7z"/><path class="a" d="m279.5 185.1q0.2-0.4 0.5-0.8 0.3-0.4 0.5-0.7 0.3-0.3 0.7-0.6 0.3-0.3 0.6-0.6 3-2.7 5.4-6.1 2.3-3.3 3.8-7.1 1.5-3.7 2.1-7.7 0.6-4 0.2-8.1l22.3-8.5c0.8 4.6 3.3 32 2.1 36.1-1.3 4.1-3.3 11.3-9.1 12.7-15.4 3.8-16-10-23.8-7.6-1.2 0.4-6.6 3.3-6.6 3.3q0.2-0.6 0.3-1.1 0.2-0.6 0.3-1.1 0.2-0.5 0.4-1.1 0.1-0.5 0.3-1z"/><g style="opacity:.2"></g><g style="opacity:.2"></g><path class="b" d="m348.5 327.8c0 0 8.4-12 9.5-15.9 1.1-3.9 7.2-7.2 12.5-10l7.8 8.3c0 0-0.5 18.6-1.7 20.2-1.2 1.5-12.7 5.5-12.7 5.5l-15.4 2q-0.2-0.8 0-1.7 0.2-0.9 0.7-1.6 0.5-0.7 1.3-1.2 0.8-0.5 1.6-0.6 0.8-0.2 1.6-0.3 0.7-0.2 1.5-0.3 0.8-0.1 1.5-0.2 0.8-0.1 1.6-0.2l6.8-4 2.6-4.3c0 0-3-4.6-3.6-4.8-0.6-0.2-2.4 0.5-3.6 2.5-1.2 1.9-6.5 12.3-12 6.6z"/><path class="b" d="m368.7 302.9l22.7-37.1-9.1-28.8 29.8-8.3c2.2 10.8 7 39.8 6.8 47.1-0.3 8.1-42.2 38.3-42.2 38.3z"/><path class="c" d="m409.4 267.8c-0.1 0.1-0.9-0.7-2.4-1.6q-0.7-0.5-1.5-0.9-0.7-0.3-1.5-0.6-0.8-0.3-1.7-0.4-0.8-0.2-1.6-0.3-0.9-0.1-1.7 0-0.9 0-1.7 0.1-0.9 0.2-1.7 0.4-0.8 0.2-1.6 0.5c-1.6 0.7-2.5 1.3-2.6 1.2 0 0 0.2-0.2 0.6-0.5q0.2-0.1 0.4-0.3 0.3-0.1 0.5-0.2 0.2-0.2 0.5-0.3 0.2-0.1 0.4-0.2 1.6-0.7 3.4-1 1.7-0.3 3.5-0.2 1.8 0.2 3.4 0.8 1.7 0.6 3.1 1.6 0.3 0.1 0.5 0.3 0.2 0.2 0.4 0.3 0.2 0.2 0.4 0.4 0.2 0.2 0.4 0.3c0.3 0.3 0.5 0.6 0.5 0.6z"/><path class="b" d="m300.5 300.4c0 0 9.6 2 13 2 3.5 0 18.4 9.9 18.4 9.9 0 0 1.2 3.7-3.3 3.7-4.6 0-11.4-6.4-13.6-5.6-2.1 0.7-4.1 6.6-4.1 6.6l11.3 7.4 7.6-2c0 0 2 2.3 0.8 3.7-0.8 1-3.5 2.7-4.9 3.5q-0.1 0.1-0.3 0.2-0.2 0.1-0.4 0.2-0.2 0.1-0.4 0.1-0.2 0.1-0.4 0.1l-6.9 1.2c0 0-14.2 1.3-15.5 0-1.3-1.3-9-14.3-9.1-15.2-0.1-1-4.4-6.4-4.4-6.4z"/><path class="b" d="m303.8 305.6l-22.7-37.1 7-26.8 1.2 0.1-27-8.5c0 0-9 37-8.7 45.2 0.2 8.2 42.1 38.3 42.1 38.3z"/><path class="c" d="m263.1 270.5c0 0 0.1-0.2 0.5-0.6q0.2-0.2 0.4-0.4 0.2-0.1 0.4-0.3 0.2-0.2 0.4-0.3 0.2-0.2 0.4-0.3 1.5-1 3.1-1.6 1.7-0.6 3.5-0.8 1.7-0.2 3.5 0.1 1.7 0.3 3.3 1.1 0.3 0.1 0.5 0.2 0.2 0.1 0.5 0.2 0.2 0.2 0.4 0.3 0.2 0.1 0.5 0.3c0.4 0.3 0.6 0.5 0.6 0.5-0.1 0-1-0.6-2.6-1.2q-0.8-0.3-1.6-0.6-0.9-0.2-1.7-0.3-0.8-0.1-1.7-0.2-0.8 0-1.7 0.1-0.8 0.1-1.7 0.2-0.8 0.2-1.6 0.5-0.8 0.3-1.6 0.6-0.8 0.4-1.5 0.8c-1.5 1-2.3 1.8-2.3 1.7z"/><path class="c" d="m321 330.7q-0.3 0.1-0.7 0.2-0.3 0.1-0.7 0.2-0.3 0.1-0.6 0.1-0.4 0.1-0.7 0.1c-1.7 0.3-4.1 0.6-6.7 0.8q-0.9 0-1.7 0.1-0.9 0-1.7 0-0.8 0-1.7 0-0.8-0.1-1.7-0.1-0.3 0-0.7-0.1-0.3 0-0.7-0.1-0.3 0-0.7-0.1-0.3-0.1-0.6-0.3c0 0 1 0.1 2.7 0.2 1.8 0.1 4.1 0 6.7-0.1 2.6-0.2 5-0.5 6.7-0.7q0.4 0 0.7-0.1 0.4 0 0.7 0 0.4-0.1 0.7-0.1 0.4 0 0.7 0z"/><path class="c" d="m322.3 330.5q-0.3 0.1-0.7 0.1-0.3 0-0.6 0-0.4 0-0.7-0.1-0.3 0-0.7-0.1-0.8-0.1-1.6-0.3-0.8-0.2-1.6-0.4-0.8-0.2-1.5-0.4-0.8-0.2-1.6-0.5c-4.8-1.7-8.4-3.8-8.3-3.9 0.1-0.2 0.9 0.4 2.5 1 1.5 0.7 3.6 1.5 6 2.4q0.7 0.3 1.5 0.5 0.8 0.2 1.5 0.5 0.8 0.2 1.6 0.4 0.8 0.2 1.6 0.3c1.6 0.4 2.6 0.4 2.6 0.5z"/><path class="a" d="m290.9 210.9q0 0.2 0 0.4 0 0.2 0 0.4 0 0.2 0 0.4 0 0.2-0.1 0.4c0 0.9-0.1 2.4-0.2 4.1-0.2 3.5-0.2 8.4 0 13.8 0.2 5.4 0.6 10.2 0.9 13.7 0.2 1.8 0.4 3.2 0.5 4.2q0 0.2 0.1 0.4 0 0.2 0 0.4 0 0.2 0 0.4 0 0.1 0 0.3 0-0.1-0.1-0.3 0-0.2-0.1-0.4 0-0.2 0-0.4-0.1-0.2-0.1-0.4-0.3-1.5-0.6-4.1c-0.5-3.5-0.9-8.4-1.1-13.8q-0.1-1.7-0.1-3.4 0-1.8 0-3.5 0-1.7 0.1-3.4 0.1-1.8 0.2-3.5c0.1-1.8 0.3-3.2 0.4-4.2q0-0.2 0-0.4 0-0.1 0.1-0.3 0-0.2 0-0.4 0-0.2 0.1-0.4z"/><path class="a" d="m381.6 205.6q0.1 0.2 0.1 0.4 0.1 0.2 0.2 0.4 0 0.2 0.1 0.4 0 0.2 0.1 0.4 0.2 0.8 0.4 1.9c0.1 0.8 0.3 1.6 0.4 2.6q0.2 0.8 0.3 1.6 0.1 0.9 0.1 1.7 0.1 0.8 0.2 1.7 0 0.8 0.1 1.7c0.1 2.5 0.1 5.3 0 8.2-0.3 5.8-0.9 11.1-1.3 14.8q-0.4 2.8-0.6 4.5 0 0.2 0 0.4-0.1 0.2-0.1 0.5 0 0.2-0.1 0.4 0 0.2-0.1 0.4 0-0.2 0-0.5 0-0.2 0-0.4 0.1-0.2 0.1-0.4 0-0.2 0-0.4 0.2-1.7 0.4-4.5c0.4-3.8 0.9-9 1.1-14.8 0.2-2.9 0.2-5.7 0-8.2-0.1-2.5-0.2-4.8-0.5-6.7-0.1-0.9-0.2-1.8-0.3-2.5q-0.2-1.1-0.4-1.9 0-0.2-0.1-0.4 0-0.2 0-0.4 0-0.3-0.1-0.5 0-0.2 0-0.4z"/><path class="a" d="m352.4 257.1c-0.1 0.1-1.5-0.6-3.9-1.4q-0.5-0.2-1.1-0.3-0.5-0.1-1.1-0.3-0.5-0.1-1-0.2-0.6-0.1-1.1-0.2-0.7-0.1-1.4-0.2-0.7-0.1-1.3-0.1-0.7-0.1-1.4-0.1-0.7-0.1-1.4-0.1-0.7 0-1.3 0.1-0.7 0-1.4 0-0.7 0.1-1.4 0.2-0.6 0-1.3 0.1-0.6 0.1-1.1 0.2-0.6 0.2-1.1 0.3-0.5 0.1-1.1 0.2-0.5 0.2-1.1 0.3c-2.4 0.8-3.8 1.5-3.9 1.4q0.2-0.1 0.3-0.2 0.1-0.1 0.2-0.1 0.1-0.1 0.3-0.1 0.1-0.1 0.2-0.2 0.4-0.1 0.7-0.3 0.4-0.1 0.7-0.3 0.4-0.1 0.7-0.3 0.4-0.1 0.8-0.2 0.5-0.2 1-0.3 0.6-0.2 1.1-0.4 0.6-0.1 1.1-0.2 0.6-0.1 1.1-0.2 0.7-0.1 1.4-0.2 0.7-0.1 1.4-0.2 0.7 0 1.4-0.1 0.7 0 1.4 0 0.7 0 1.3 0 0.7 0.1 1.4 0.2 0.7 0 1.4 0.1 0.7 0.1 1.4 0.2 0.5 0.1 1.1 0.3 0.5 0.1 1.1 0.2 0.5 0.2 1.1 0.3 0.5 0.2 1 0.4 0.4 0.1 0.8 0.2 0.3 0.2 0.7 0.3 0.3 0.2 0.7 0.3 0.3 0.2 0.7 0.4 0.1 0 0.2 0.1 0.1 0 0.2 0.1 0.2 0.1 0.3 0.1 0.1 0.1 0.2 0.2z"/></svg>